<svg width="608" height="286" viewBox="0 0 608 286" fill="none" xmlns="http://www.w3.org/2000/svg">
<path d="M70.084 32.0127L74.3027 31.6025C74.5566 33.0186 75.0693 34.0586 75.8408 34.7227C76.6221 35.3867 77.6719 35.7188 78.9902 35.7188C80.3867 35.7188 81.4365 35.4258 82.1396 34.8398C82.8525 34.2441 83.209 33.5508 83.209 32.7598C83.209 32.252 83.0576 31.8223 82.7549 31.4707C82.4619 31.1094 81.9443 30.7969 81.2021 30.5332C80.6943 30.3574 79.5371 30.0449 77.7305 29.5957C75.4062 29.0195 73.7754 28.3115 72.8379 27.4717C71.5195 26.29 70.8604 24.8496 70.8604 23.1504C70.8604 22.0566 71.168 21.0361 71.7832 20.0889C72.4082 19.1318 73.3018 18.4043 74.4639 17.9062C75.6357 17.4082 77.0469 17.1592 78.6973 17.1592C81.3926 17.1592 83.4189 17.75 84.7764 18.9316C86.1436 20.1133 86.8613 21.6904 86.9297 23.6631L82.5938 23.8535C82.4082 22.75 82.0078 21.959 81.3926 21.4805C80.7871 20.9922 79.874 20.748 78.6533 20.748C77.3936 20.748 76.4072 21.0068 75.6943 21.5244C75.2354 21.8564 75.0059 22.3008 75.0059 22.8574C75.0059 23.3652 75.2207 23.7998 75.6504 24.1611C76.1973 24.6201 77.5254 25.0986 79.6348 25.5967C81.7441 26.0947 83.3018 26.6123 84.3076 27.1494C85.3232 27.6768 86.1143 28.4043 86.6807 29.332C87.2568 30.25 87.5449 31.3877 87.5449 32.7451C87.5449 33.9756 87.2031 35.1279 86.5195 36.2021C85.8359 37.2764 84.8691 38.0771 83.6191 38.6045C82.3691 39.1221 80.8115 39.3809 78.9463 39.3809C76.2314 39.3809 74.1465 38.7559 72.6914 37.5059C71.2363 36.2461 70.3672 34.415 70.084 32.0127ZM100.172 34.0488L104.273 34.7373C103.746 36.2412 102.911 37.3887 101.769 38.1797C100.636 38.9609 99.2148 39.3516 97.5059 39.3516C94.8008 39.3516 92.7988 38.4678 91.5 36.7002C90.4746 35.2842 89.9619 33.4971 89.9619 31.3389C89.9619 28.7607 90.6357 26.7441 91.9834 25.2891C93.3311 23.8242 95.0352 23.0918 97.0957 23.0918C99.4102 23.0918 101.236 23.8584 102.574 25.3916C103.912 26.915 104.552 29.2539 104.493 32.4082H94.1807C94.21 33.6289 94.542 34.5811 95.1768 35.2646C95.8115 35.9385 96.6025 36.2754 97.5498 36.2754C98.1943 36.2754 98.7363 36.0996 99.1758 35.748C99.6152 35.3965 99.9473 34.8301 100.172 34.0488ZM100.406 29.8887C100.377 28.6973 100.069 27.7939 99.4834 27.1787C98.8975 26.5537 98.1846 26.2412 97.3447 26.2412C96.4463 26.2412 95.7041 26.5684 95.1182 27.2227C94.5322 27.877 94.2441 28.7656 94.2539 29.8887H100.406ZM122.013 39H117.896V31.0605C117.896 29.3809 117.809 28.2969 117.633 27.8086C117.457 27.3105 117.169 26.9248 116.769 26.6514C116.378 26.3779 115.904 26.2412 115.348 26.2412C114.635 26.2412 113.995 26.4365 113.429 26.8271C112.862 27.2178 112.472 27.7354 112.257 28.3799C112.052 29.0244 111.949 30.2158 111.949 31.9541V39H107.833V23.4434H111.656V25.7285C113.014 23.9707 114.723 23.0918 116.783 23.0918C117.691 23.0918 118.521 23.2578 119.273 23.5898C120.025 23.9121 120.592 24.3271 120.973 24.835C121.363 25.3428 121.632 25.9189 121.778 26.5635C121.935 27.208 122.013 28.1309 122.013 29.332V39ZM126.202 21.334V17.5254H130.318V21.334H126.202ZM126.202 39V23.4434H130.318V39H126.202ZM148.702 39H144.586V31.0605C144.586 29.3809 144.498 28.2969 144.322 27.8086C144.146 27.3105 143.858 26.9248 143.458 26.6514C143.067 26.3779 142.594 26.2412 142.037 26.2412C141.324 26.2412 140.685 26.4365 140.118 26.8271C139.552 27.2178 139.161 27.7354 138.946 28.3799C138.741 29.0244 138.639 30.2158 138.639 31.9541V39H134.522V23.4434H138.346V25.7285C139.703 23.9707 141.412 23.0918 143.473 23.0918C144.381 23.0918 145.211 23.2578 145.963 23.5898C146.715 23.9121 147.281 24.3271 147.662 24.835C148.053 25.3428 148.321 25.9189 148.468 26.5635C148.624 27.208 148.702 28.1309 148.702 29.332V39ZM152.789 34.8838H156.905V37.8281C156.905 39.0195 156.803 39.957 156.598 40.6406C156.393 41.334 156.002 41.9541 155.426 42.501C154.859 43.0479 154.137 43.4775 153.258 43.79L152.452 42.0908C153.282 41.8174 153.873 41.4414 154.225 40.9629C154.576 40.4844 154.762 39.8301 154.781 39H152.789V34.8838ZM179.244 39H175.128V23.4873C173.624 24.8936 171.852 25.9336 169.811 26.6074V22.8721C170.885 22.5205 172.052 21.8564 173.312 20.8799C174.571 19.8936 175.436 18.7461 175.904 17.4375H179.244V39ZM199.312 35.1768V39H184.884C185.04 37.5547 185.509 36.1875 186.29 34.8984C187.071 33.5996 188.614 31.8809 190.919 29.7422C192.774 28.0137 193.912 26.8418 194.332 26.2266C194.898 25.377 195.182 24.5371 195.182 23.707C195.182 22.7891 194.933 22.0859 194.435 21.5977C193.946 21.0996 193.268 20.8506 192.398 20.8506C191.539 20.8506 190.855 21.1094 190.348 21.627C189.84 22.1445 189.547 23.0039 189.469 24.2051L185.367 23.7949C185.611 21.5293 186.378 19.9033 187.667 18.917C188.956 17.9307 190.567 17.4375 192.501 17.4375C194.62 17.4375 196.285 18.0088 197.496 19.1514C198.707 20.2939 199.312 21.7148 199.312 23.4141C199.312 24.3809 199.137 25.3037 198.785 26.1826C198.443 27.0518 197.896 27.9648 197.145 28.9219C196.646 29.5566 195.748 30.4697 194.449 31.6611C193.15 32.8525 192.325 33.6436 191.974 34.0342C191.632 34.4248 191.354 34.8057 191.139 35.1768H199.312ZM211.354 17.5254H219.278C221.065 17.5254 222.428 17.6621 223.365 17.9355C224.625 18.3066 225.704 18.9658 226.603 19.9131C227.501 20.8604 228.185 22.0225 228.653 23.3994C229.122 24.7666 229.356 26.4561 229.356 28.4678C229.356 30.2354 229.137 31.7588 228.697 33.0381C228.16 34.6006 227.394 35.8652 226.397 36.832C225.646 37.5645 224.63 38.1357 223.351 38.5459C222.394 38.8486 221.114 39 219.513 39H211.354V17.5254ZM215.689 21.1582V35.3818H218.927C220.138 35.3818 221.012 35.3135 221.549 35.1768C222.252 35.001 222.833 34.7031 223.292 34.2832C223.761 33.8633 224.142 33.1748 224.435 32.2178C224.728 31.251 224.874 29.9375 224.874 28.2773C224.874 26.6172 224.728 25.3428 224.435 24.4541C224.142 23.5654 223.731 22.8721 223.204 22.374C222.677 21.876 222.008 21.5391 221.197 21.3633C220.592 21.2266 219.405 21.1582 217.638 21.1582H215.689ZM242.027 34.0488L246.129 34.7373C245.602 36.2412 244.767 37.3887 243.624 38.1797C242.491 38.9609 241.07 39.3516 239.361 39.3516C236.656 39.3516 234.654 38.4678 233.355 36.7002C232.33 35.2842 231.817 33.4971 231.817 31.3389C231.817 28.7607 232.491 26.7441 233.839 25.2891C235.187 23.8242 236.891 23.0918 238.951 23.0918C241.266 23.0918 243.092 23.8584 244.43 25.3916C245.768 26.915 246.407 29.2539 246.349 32.4082H236.036C236.065 33.6289 236.397 34.5811 237.032 35.2646C237.667 35.9385 238.458 36.2754 239.405 36.2754C240.05 36.2754 240.592 36.0996 241.031 35.748C241.471 35.3965 241.803 34.8301 242.027 34.0488ZM242.262 29.8887C242.232 28.6973 241.925 27.7939 241.339 27.1787C240.753 26.5537 240.04 26.2412 239.2 26.2412C238.302 26.2412 237.56 26.5684 236.974 27.2227C236.388 27.877 236.1 28.7656 236.109 29.8887H242.262ZM263.282 28.043L259.225 28.7754C259.088 27.9648 258.775 27.3545 258.287 26.9443C257.809 26.5342 257.184 26.3291 256.412 26.3291C255.387 26.3291 254.566 26.6855 253.951 27.3984C253.346 28.1016 253.043 29.2832 253.043 30.9434C253.043 32.7891 253.351 34.0928 253.966 34.8545C254.591 35.6162 255.426 35.9971 256.471 35.9971C257.252 35.9971 257.892 35.7773 258.39 35.3379C258.888 34.8887 259.239 34.1221 259.444 33.0381L263.487 33.7266C263.067 35.582 262.262 36.9834 261.07 37.9307C259.879 38.8779 258.282 39.3516 256.28 39.3516C254.005 39.3516 252.188 38.6338 250.831 37.1982C249.483 35.7627 248.81 33.7754 248.81 31.2363C248.81 28.668 249.488 26.6709 250.846 25.2451C252.203 23.8096 254.039 23.0918 256.354 23.0918C258.248 23.0918 259.752 23.502 260.865 24.3223C261.988 25.1328 262.794 26.373 263.282 28.043ZM275.426 34.0488L279.527 34.7373C279 36.2412 278.165 37.3887 277.022 38.1797C275.89 38.9609 274.469 39.3516 272.76 39.3516C270.055 39.3516 268.053 38.4678 266.754 36.7002C265.729 35.2842 265.216 33.4971 265.216 31.3389C265.216 28.7607 265.89 26.7441 267.237 25.2891C268.585 23.8242 270.289 23.0918 272.35 23.0918C274.664 23.0918 276.49 23.8584 277.828 25.3916C279.166 26.915 279.806 29.2539 279.747 32.4082H269.435C269.464 33.6289 269.796 34.5811 270.431 35.2646C271.065 35.9385 271.856 36.2754 272.804 36.2754C273.448 36.2754 273.99 36.0996 274.43 35.748C274.869 35.3965 275.201 34.8301 275.426 34.0488ZM275.66 29.8887C275.631 28.6973 275.323 27.7939 274.737 27.1787C274.151 26.5537 273.438 26.2412 272.599 26.2412C271.7 26.2412 270.958 26.5684 270.372 27.2227C269.786 27.877 269.498 28.7656 269.508 29.8887H275.66ZM282.809 23.4434H286.603V25.5674C287.96 23.917 289.576 23.0918 291.451 23.0918C292.447 23.0918 293.312 23.2969 294.044 23.707C294.776 24.1172 295.377 24.7373 295.846 25.5674C296.529 24.7373 297.267 24.1172 298.058 23.707C298.849 23.2969 299.693 23.0918 300.592 23.0918C301.734 23.0918 302.701 23.3262 303.492 23.7949C304.283 24.2539 304.874 24.9326 305.265 25.8311C305.548 26.4951 305.689 27.5693 305.689 29.0537V39H301.573V30.1084C301.573 28.5654 301.432 27.5693 301.148 27.1201C300.768 26.5342 300.182 26.2412 299.391 26.2412C298.814 26.2412 298.272 26.417 297.765 26.7686C297.257 27.1201 296.891 27.6377 296.666 28.3213C296.441 28.9951 296.329 30.0645 296.329 31.5293V39H292.213V30.4746C292.213 28.9609 292.14 27.9844 291.993 27.5449C291.847 27.1055 291.617 26.7783 291.305 26.5635C291.002 26.3486 290.587 26.2412 290.06 26.2412C289.425 26.2412 288.854 26.4121 288.346 26.7539C287.838 27.0957 287.472 27.5889 287.247 28.2334C287.032 28.8779 286.925 29.9473 286.925 31.4414V39H282.809V23.4434ZM309.63 39V17.5254H313.746V25.2598C315.016 23.8145 316.52 23.0918 318.258 23.0918C320.152 23.0918 321.72 23.7803 322.96 25.1572C324.2 26.5244 324.82 28.4922 324.82 31.0605C324.82 33.7168 324.186 35.7627 322.916 37.1982C321.656 38.6338 320.123 39.3516 318.316 39.3516C317.428 39.3516 316.549 39.1318 315.68 38.6924C314.82 38.2432 314.078 37.584 313.453 36.7148V39H309.63ZM313.717 30.8848C313.717 32.4961 313.971 33.6875 314.479 34.459C315.191 35.5527 316.139 36.0996 317.32 36.0996C318.229 36.0996 319 35.7139 319.635 34.9424C320.279 34.1611 320.602 32.9355 320.602 31.2656C320.602 29.4883 320.279 28.209 319.635 27.4277C318.99 26.6367 318.165 26.2412 317.159 26.2412C316.173 26.2412 315.353 26.627 314.698 27.3984C314.044 28.1602 313.717 29.3223 313.717 30.8848ZM337.154 34.0488L341.256 34.7373C340.729 36.2412 339.894 37.3887 338.751 38.1797C337.618 38.9609 336.197 39.3516 334.488 39.3516C331.783 39.3516 329.781 38.4678 328.482 36.7002C327.457 35.2842 326.944 33.4971 326.944 31.3389C326.944 28.7607 327.618 26.7441 328.966 25.2891C330.313 23.8242 332.018 23.0918 334.078 23.0918C336.393 23.0918 338.219 23.8584 339.557 25.3916C340.895 26.915 341.534 29.2539 341.476 32.4082H331.163C331.192 33.6289 331.524 34.5811 332.159 35.2646C332.794 35.9385 333.585 36.2754 334.532 36.2754C335.177 36.2754 335.719 36.0996 336.158 35.748C336.598 35.3965 336.93 34.8301 337.154 34.0488ZM337.389 29.8887C337.359 28.6973 337.052 27.7939 336.466 27.1787C335.88 26.5537 335.167 26.2412 334.327 26.2412C333.429 26.2412 332.687 26.5684 332.101 27.2227C331.515 27.877 331.227 28.7656 331.236 29.8887H337.389ZM348.785 39H344.669V23.4434H348.492V25.6553C349.146 24.6104 349.732 23.9219 350.25 23.5898C350.777 23.2578 351.373 23.0918 352.037 23.0918C352.975 23.0918 353.878 23.3506 354.747 23.8682L353.473 27.457C352.779 27.0078 352.135 26.7832 351.539 26.7832C350.963 26.7832 350.475 26.9443 350.074 27.2666C349.674 27.5791 349.356 28.1504 349.122 28.9805C348.897 29.8105 348.785 31.5488 348.785 34.1953V39ZM377.906 35.1768V39H363.478C363.634 37.5547 364.103 36.1875 364.884 34.8984C365.665 33.5996 367.208 31.8809 369.513 29.7422C371.368 28.0137 372.506 26.8418 372.926 26.2266C373.492 25.377 373.775 24.5371 373.775 23.707C373.775 22.7891 373.526 22.0859 373.028 21.5977C372.54 21.0996 371.861 20.8506 370.992 20.8506C370.133 20.8506 369.449 21.1094 368.941 21.627C368.434 22.1445 368.141 23.0039 368.062 24.2051L363.961 23.7949C364.205 21.5293 364.972 19.9033 366.261 18.917C367.55 17.9307 369.161 17.4375 371.095 17.4375C373.214 17.4375 374.879 18.0088 376.09 19.1514C377.301 20.2939 377.906 21.7148 377.906 23.4141C377.906 24.3809 377.73 25.3037 377.379 26.1826C377.037 27.0518 376.49 27.9648 375.738 28.9219C375.24 29.5566 374.342 30.4697 373.043 31.6611C371.744 32.8525 370.919 33.6436 370.567 34.0342C370.226 34.4248 369.947 34.8057 369.732 35.1768H377.906ZM387.662 17.4375C389.742 17.4375 391.368 18.1797 392.54 19.6641C393.937 21.4219 394.635 24.3369 394.635 28.4092C394.635 32.4717 393.932 35.3916 392.525 37.1689C391.363 38.6338 389.742 39.3662 387.662 39.3662C385.572 39.3662 383.888 38.5654 382.608 36.9639C381.329 35.3525 380.689 32.4863 380.689 28.3652C380.689 24.3223 381.393 21.4121 382.799 19.6348C383.961 18.1699 385.582 17.4375 387.662 17.4375ZM387.662 20.8506C387.164 20.8506 386.72 21.0117 386.329 21.334C385.938 21.6465 385.636 22.2129 385.421 23.0332C385.138 24.0977 384.996 25.8896 384.996 28.4092C384.996 30.9287 385.123 32.6621 385.377 33.6094C385.631 34.5469 385.948 35.1719 386.329 35.4844C386.72 35.7969 387.164 35.9531 387.662 35.9531C388.16 35.9531 388.604 35.7969 388.995 35.4844C389.386 35.1621 389.688 34.5908 389.903 33.7705C390.187 32.7158 390.328 30.9287 390.328 28.4092C390.328 25.8896 390.201 24.1611 389.947 23.2236C389.693 22.2764 389.371 21.6465 388.98 21.334C388.6 21.0117 388.16 20.8506 387.662 20.8506ZM411.305 35.1768V39H396.876C397.032 37.5547 397.501 36.1875 398.282 34.8984C399.063 33.5996 400.606 31.8809 402.911 29.7422C404.767 28.0137 405.904 26.8418 406.324 26.2266C406.891 25.377 407.174 24.5371 407.174 23.707C407.174 22.7891 406.925 22.0859 406.427 21.5977C405.938 21.0996 405.26 20.8506 404.391 20.8506C403.531 20.8506 402.848 21.1094 402.34 21.627C401.832 22.1445 401.539 23.0039 401.461 24.2051L397.359 23.7949C397.604 21.5293 398.37 19.9033 399.659 18.917C400.948 17.9307 402.56 17.4375 404.493 17.4375C406.612 17.4375 408.277 18.0088 409.488 19.1514C410.699 20.2939 411.305 21.7148 411.305 23.4141C411.305 24.3809 411.129 25.3037 410.777 26.1826C410.436 27.0518 409.889 27.9648 409.137 28.9219C408.639 29.5566 407.74 30.4697 406.441 31.6611C405.143 32.8525 404.317 33.6436 403.966 34.0342C403.624 34.4248 403.346 34.8057 403.131 35.1768H411.305ZM428.004 35.1768V39H413.575C413.731 37.5547 414.2 36.1875 414.981 34.8984C415.763 33.5996 417.306 31.8809 419.61 29.7422C421.466 28.0137 422.604 26.8418 423.023 26.2266C423.59 25.377 423.873 24.5371 423.873 23.707C423.873 22.7891 423.624 22.0859 423.126 21.5977C422.638 21.0996 421.959 20.8506 421.09 20.8506C420.23 20.8506 419.547 21.1094 419.039 21.627C418.531 22.1445 418.238 23.0039 418.16 24.2051L414.059 23.7949C414.303 21.5293 415.069 19.9033 416.358 18.917C417.647 17.9307 419.259 17.4375 421.192 17.4375C423.312 17.4375 424.977 18.0088 426.188 19.1514C427.398 20.2939 428.004 21.7148 428.004 23.4141C428.004 24.3809 427.828 25.3037 427.477 26.1826C427.135 27.0518 426.588 27.9648 425.836 28.9219C425.338 29.5566 424.439 30.4697 423.141 31.6611C421.842 32.8525 421.017 33.6436 420.665 34.0342C420.323 34.4248 420.045 34.8057 419.83 35.1768H428.004ZM80.8066 99H76.6904V83.4873C75.1865 84.8936 73.4141 85.9336 71.373 86.6074V82.8721C72.4473 82.5205 73.6143 81.8564 74.874 80.8799C76.1338 79.8936 76.998 78.7461 77.4668 77.4375H80.8066V99ZM90.5039 87.4131C89.4395 86.9639 88.6631 86.3486 88.1748 85.5674C87.6963 84.7764 87.457 83.9121 87.457 82.9746C87.457 81.373 88.0137 80.0498 89.127 79.0049C90.25 77.96 91.8418 77.4375 93.9023 77.4375C95.9434 77.4375 97.5254 77.96 98.6484 79.0049C99.7812 80.0498 100.348 81.373 100.348 82.9746C100.348 83.9707 100.089 84.8594 99.5713 85.6406C99.0537 86.4121 98.3262 87.0029 97.3887 87.4131C98.5801 87.8916 99.4834 88.5898 100.099 89.5078C100.724 90.4258 101.036 91.4854 101.036 92.6865C101.036 94.6689 100.401 96.2803 99.1318 97.5205C97.8721 98.7607 96.1924 99.3809 94.0928 99.3809C92.1396 99.3809 90.5137 98.8682 89.2148 97.8428C87.6816 96.6318 86.915 94.9717 86.915 92.8623C86.915 91.7002 87.2031 90.6357 87.7793 89.6689C88.3555 88.6924 89.2637 87.9404 90.5039 87.4131ZM91.3535 83.2676C91.3535 84.0879 91.583 84.7275 92.042 85.1865C92.5107 85.6455 93.1309 85.875 93.9023 85.875C94.6836 85.875 95.3086 85.6455 95.7773 85.1865C96.2461 84.7178 96.4805 84.0732 96.4805 83.2529C96.4805 82.4814 96.2461 81.8662 95.7773 81.4072C95.3184 80.9385 94.708 80.7041 93.9463 80.7041C93.1553 80.7041 92.5254 80.9385 92.0566 81.4072C91.5879 81.876 91.3535 82.4961 91.3535 83.2676ZM90.9727 92.4668C90.9727 93.5996 91.2607 94.4834 91.8369 95.1182C92.4229 95.7529 93.1504 96.0703 94.0195 96.0703C94.8691 96.0703 95.5723 95.7676 96.1289 95.1621C96.6855 94.5469 96.9639 93.6631 96.9639 92.5107C96.9639 91.5049 96.6807 90.6992 96.1143 90.0938C95.5479 89.4785 94.8301 89.1709 93.9609 89.1709C92.9551 89.1709 92.2031 89.5176 91.7051 90.2109C91.2168 90.9043 90.9727 91.6562 90.9727 92.4668ZM104.552 99V94.8838H108.668V99H104.552ZM111.876 93.3018L115.86 92.8184C115.987 93.834 116.329 94.6104 116.886 95.1475C117.442 95.6846 118.116 95.9531 118.907 95.9531C119.757 95.9531 120.47 95.6309 121.046 94.9863C121.632 94.3418 121.925 93.4727 121.925 92.3789C121.925 91.3438 121.646 90.5234 121.09 89.918C120.533 89.3125 119.854 89.0098 119.054 89.0098C118.526 89.0098 117.896 89.1123 117.164 89.3174L117.618 85.9629C118.731 85.9922 119.581 85.7529 120.167 85.2451C120.753 84.7275 121.046 84.0439 121.046 83.1943C121.046 82.4717 120.831 81.8955 120.401 81.4658C119.972 81.0361 119.4 80.8213 118.688 80.8213C117.984 80.8213 117.384 81.0654 116.886 81.5537C116.388 82.042 116.085 82.7549 115.978 83.6924L112.184 83.0479C112.447 81.749 112.843 80.7139 113.37 79.9424C113.907 79.1611 114.649 78.5508 115.597 78.1113C116.554 77.6621 117.623 77.4375 118.805 77.4375C120.826 77.4375 122.447 78.082 123.668 79.3711C124.674 80.4258 125.177 81.6172 125.177 82.9453C125.177 84.8301 124.146 86.334 122.086 87.457C123.316 87.7207 124.298 88.3115 125.03 89.2295C125.772 90.1475 126.144 91.2559 126.144 92.5547C126.144 94.4395 125.455 96.0459 124.078 97.374C122.701 98.7021 120.987 99.3662 118.937 99.3662C116.993 99.3662 115.382 98.8096 114.103 97.6963C112.823 96.5732 112.081 95.1084 111.876 93.3018ZM135.68 77.4375C137.76 77.4375 139.386 78.1797 140.558 79.6641C141.954 81.4219 142.652 84.3369 142.652 88.4092C142.652 92.4717 141.949 95.3916 140.543 97.1689C139.381 98.6338 137.76 99.3662 135.68 99.3662C133.59 99.3662 131.905 98.5654 130.626 96.9639C129.347 95.3525 128.707 92.4863 128.707 88.3652C128.707 84.3223 129.41 81.4121 130.816 79.6348C131.979 78.1699 133.6 77.4375 135.68 77.4375ZM135.68 80.8506C135.182 80.8506 134.737 81.0117 134.347 81.334C133.956 81.6465 133.653 82.2129 133.438 83.0332C133.155 84.0977 133.014 85.8896 133.014 88.4092C133.014 90.9287 133.141 92.6621 133.395 93.6094C133.648 94.5469 133.966 95.1719 134.347 95.4844C134.737 95.7969 135.182 95.9531 135.68 95.9531C136.178 95.9531 136.622 95.7969 137.013 95.4844C137.403 95.1621 137.706 94.5908 137.921 93.7705C138.204 92.7158 138.346 90.9287 138.346 88.4092C138.346 85.8896 138.219 84.1611 137.965 83.2236C137.711 82.2764 137.389 81.6465 136.998 81.334C136.617 81.0117 136.178 80.8506 135.68 80.8506ZM157.726 99L152.599 77.5254H157.037L160.274 92.2764L164.2 77.5254H169.356L173.121 92.5254L176.417 77.5254H180.782L175.567 99H170.968L166.69 82.9453L162.428 99H157.726ZM182.877 99V77.5254H187.213V99H182.877ZM196.192 99V81.1582H189.82V77.5254H206.886V81.1582H200.528V99H196.192ZM71.1973 159V137.525H80.3232C82.6182 137.525 84.2832 137.721 85.3184 138.111C86.3633 138.492 87.1982 139.176 87.8232 140.162C88.4482 141.148 88.7607 142.276 88.7607 143.546C88.7607 145.157 88.2871 146.49 87.3398 147.545C86.3926 148.59 84.9766 149.249 83.0918 149.522C84.0293 150.069 84.8008 150.67 85.4062 151.324C86.0215 151.979 86.8467 153.141 87.8818 154.811L90.5039 159H85.3184L82.1836 154.327C81.0703 152.657 80.3086 151.607 79.8984 151.178C79.4883 150.738 79.0537 150.44 78.5947 150.284C78.1357 150.118 77.4082 150.035 76.4121 150.035H75.5332V159H71.1973ZM75.5332 146.607H78.7412C80.8213 146.607 82.1201 146.52 82.6377 146.344C83.1553 146.168 83.5605 145.865 83.8535 145.436C84.1465 145.006 84.293 144.469 84.293 143.824C84.293 143.102 84.0977 142.521 83.707 142.081C83.3262 141.632 82.7842 141.349 82.0811 141.231C81.7295 141.183 80.6748 141.158 78.917 141.158H75.5332V146.607ZM91.8809 151.002C91.8809 149.635 92.2178 148.312 92.8916 147.032C93.5654 145.753 94.5176 144.776 95.748 144.103C96.9883 143.429 98.3701 143.092 99.8936 143.092C102.247 143.092 104.176 143.858 105.68 145.392C107.184 146.915 107.936 148.844 107.936 151.178C107.936 153.531 107.174 155.484 105.65 157.037C104.137 158.58 102.228 159.352 99.9229 159.352C98.4971 159.352 97.1348 159.029 95.8359 158.385C94.5469 157.74 93.5654 156.798 92.8916 155.558C92.2178 154.308 91.8809 152.789 91.8809 151.002ZM96.0996 151.222C96.0996 152.765 96.4658 153.946 97.1982 154.767C97.9307 155.587 98.834 155.997 99.9082 155.997C100.982 155.997 101.881 155.587 102.604 154.767C103.336 153.946 103.702 152.755 103.702 151.192C103.702 149.669 103.336 148.497 102.604 147.677C101.881 146.856 100.982 146.446 99.9082 146.446C98.834 146.446 97.9307 146.856 97.1982 147.677C96.4658 148.497 96.0996 149.679 96.0996 151.222ZM124.737 148.043L120.68 148.775C120.543 147.965 120.23 147.354 119.742 146.944C119.264 146.534 118.639 146.329 117.867 146.329C116.842 146.329 116.021 146.686 115.406 147.398C114.801 148.102 114.498 149.283 114.498 150.943C114.498 152.789 114.806 154.093 115.421 154.854C116.046 155.616 116.881 155.997 117.926 155.997C118.707 155.997 119.347 155.777 119.845 155.338C120.343 154.889 120.694 154.122 120.899 153.038L124.942 153.727C124.522 155.582 123.717 156.983 122.525 157.931C121.334 158.878 119.737 159.352 117.735 159.352C115.46 159.352 113.644 158.634 112.286 157.198C110.938 155.763 110.265 153.775 110.265 151.236C110.265 148.668 110.943 146.671 112.301 145.245C113.658 143.81 115.494 143.092 117.809 143.092C119.703 143.092 121.207 143.502 122.32 144.322C123.443 145.133 124.249 146.373 124.737 148.043ZM127.726 159V137.525H131.842V148.922L136.661 143.443H141.729L136.412 149.127L142.11 159H137.672L133.761 152.013L131.842 154.02V159H127.726ZM166.69 151.104L170.895 152.438C170.25 154.781 169.176 156.524 167.672 157.667C166.178 158.8 164.278 159.366 161.974 159.366C159.122 159.366 156.778 158.395 154.942 156.451C153.106 154.498 152.188 151.832 152.188 148.453C152.188 144.879 153.111 142.105 154.957 140.133C156.803 138.15 159.229 137.159 162.237 137.159C164.864 137.159 166.998 137.936 168.639 139.488C169.615 140.406 170.348 141.725 170.836 143.443L166.544 144.469C166.29 143.355 165.758 142.477 164.947 141.832C164.146 141.188 163.17 140.865 162.018 140.865C160.426 140.865 159.132 141.437 158.136 142.579C157.149 143.722 156.656 145.572 156.656 148.131C156.656 150.846 157.145 152.779 158.121 153.932C159.098 155.084 160.367 155.66 161.93 155.66C163.082 155.66 164.073 155.294 164.903 154.562C165.733 153.829 166.329 152.677 166.69 151.104ZM183.609 154.049L187.711 154.737C187.184 156.241 186.349 157.389 185.206 158.18C184.073 158.961 182.652 159.352 180.943 159.352C178.238 159.352 176.236 158.468 174.938 156.7C173.912 155.284 173.399 153.497 173.399 151.339C173.399 148.761 174.073 146.744 175.421 145.289C176.769 143.824 178.473 143.092 180.533 143.092C182.848 143.092 184.674 143.858 186.012 145.392C187.35 146.915 187.989 149.254 187.931 152.408H177.618C177.647 153.629 177.979 154.581 178.614 155.265C179.249 155.938 180.04 156.275 180.987 156.275C181.632 156.275 182.174 156.1 182.613 155.748C183.053 155.396 183.385 154.83 183.609 154.049ZM183.844 149.889C183.814 148.697 183.507 147.794 182.921 147.179C182.335 146.554 181.622 146.241 180.782 146.241C179.884 146.241 179.142 146.568 178.556 147.223C177.97 147.877 177.682 148.766 177.691 149.889H183.844ZM205.45 159H201.334V151.061C201.334 149.381 201.246 148.297 201.07 147.809C200.895 147.311 200.606 146.925 200.206 146.651C199.815 146.378 199.342 146.241 198.785 146.241C198.072 146.241 197.433 146.437 196.866 146.827C196.3 147.218 195.909 147.735 195.694 148.38C195.489 149.024 195.387 150.216 195.387 151.954V159H191.271V143.443H195.094V145.729C196.451 143.971 198.16 143.092 200.221 143.092C201.129 143.092 201.959 143.258 202.711 143.59C203.463 143.912 204.029 144.327 204.41 144.835C204.801 145.343 205.069 145.919 205.216 146.563C205.372 147.208 205.45 148.131 205.45 149.332V159ZM216.773 143.443V146.725H213.961V152.994C213.961 154.264 213.985 155.006 214.034 155.221C214.093 155.426 214.215 155.597 214.4 155.733C214.596 155.87 214.83 155.938 215.104 155.938C215.484 155.938 216.036 155.807 216.759 155.543L217.11 158.736C216.153 159.146 215.069 159.352 213.858 159.352C213.116 159.352 212.447 159.229 211.852 158.985C211.256 158.731 210.816 158.409 210.533 158.019C210.26 157.618 210.069 157.081 209.962 156.407C209.874 155.929 209.83 154.962 209.83 153.507V146.725H207.94V143.443H209.83V140.353L213.961 137.95V143.443H216.773ZM228.639 154.049L232.74 154.737C232.213 156.241 231.378 157.389 230.235 158.18C229.103 158.961 227.682 159.352 225.973 159.352C223.268 159.352 221.266 158.468 219.967 156.7C218.941 155.284 218.429 153.497 218.429 151.339C218.429 148.761 219.103 146.744 220.45 145.289C221.798 143.824 223.502 143.092 225.562 143.092C227.877 143.092 229.703 143.858 231.041 145.392C232.379 146.915 233.019 149.254 232.96 152.408H222.647C222.677 153.629 223.009 154.581 223.644 155.265C224.278 155.938 225.069 156.275 226.017 156.275C226.661 156.275 227.203 156.1 227.643 155.748C228.082 155.396 228.414 154.83 228.639 154.049ZM228.873 149.889C228.844 148.697 228.536 147.794 227.95 147.179C227.364 146.554 226.651 146.241 225.812 146.241C224.913 146.241 224.171 146.568 223.585 147.223C222.999 147.877 222.711 148.766 222.721 149.889H228.873ZM240.27 159H236.153V143.443H239.977V145.655C240.631 144.61 241.217 143.922 241.734 143.59C242.262 143.258 242.857 143.092 243.521 143.092C244.459 143.092 245.362 143.351 246.231 143.868L244.957 147.457C244.264 147.008 243.619 146.783 243.023 146.783C242.447 146.783 241.959 146.944 241.559 147.267C241.158 147.579 240.841 148.15 240.606 148.98C240.382 149.811 240.27 151.549 240.27 154.195V159ZM78.9316 167.525H83.2529V181.119C83.2529 182.896 83.0967 184.264 82.7842 185.221C82.3643 186.471 81.6025 187.477 80.499 188.238C79.3955 188.99 77.9404 189.366 76.1338 189.366C74.0146 189.366 72.3838 188.775 71.2412 187.594C70.0986 186.402 69.5225 184.659 69.5127 182.364L73.5996 181.896C73.6484 183.126 73.8291 183.995 74.1416 184.503C74.6104 185.274 75.3232 185.66 76.2803 185.66C77.2471 185.66 77.9307 185.387 78.3311 184.84C78.7314 184.283 78.9316 183.136 78.9316 181.397V167.525ZM87.8525 189V167.525H91.9688V189H87.8525ZM96.2021 189V184.884H100.318V189H96.2021ZM112.931 189V167.525H128.854V171.158H117.267V175.919H128.048V179.537H117.267V185.382H129.264V189H112.931ZM131.461 184.562L135.592 183.932C135.768 184.732 136.124 185.343 136.661 185.763C137.198 186.173 137.95 186.378 138.917 186.378C139.981 186.378 140.782 186.183 141.319 185.792C141.681 185.519 141.861 185.152 141.861 184.693C141.861 184.381 141.764 184.122 141.568 183.917C141.363 183.722 140.904 183.541 140.191 183.375C136.871 182.643 134.767 181.974 133.878 181.368C132.647 180.528 132.032 179.361 132.032 177.867C132.032 176.52 132.564 175.387 133.629 174.469C134.693 173.551 136.344 173.092 138.58 173.092C140.709 173.092 142.291 173.438 143.326 174.132C144.361 174.825 145.074 175.851 145.465 177.208L141.583 177.926C141.417 177.32 141.1 176.856 140.631 176.534C140.172 176.212 139.513 176.051 138.653 176.051C137.569 176.051 136.793 176.202 136.324 176.505C136.012 176.72 135.855 176.998 135.855 177.34C135.855 177.633 135.992 177.882 136.266 178.087C136.637 178.36 137.916 178.746 140.104 179.244C142.301 179.742 143.834 180.353 144.703 181.075C145.562 181.808 145.992 182.828 145.992 184.137C145.992 185.562 145.396 186.788 144.205 187.813C143.014 188.839 141.251 189.352 138.917 189.352C136.798 189.352 135.118 188.922 133.878 188.062C132.647 187.203 131.842 186.036 131.461 184.562ZM152.687 178.189L148.951 177.516C149.371 176.012 150.094 174.898 151.119 174.176C152.145 173.453 153.668 173.092 155.689 173.092C157.525 173.092 158.893 173.312 159.791 173.751C160.689 174.181 161.319 174.732 161.681 175.406C162.052 176.07 162.237 177.296 162.237 179.083L162.193 183.888C162.193 185.255 162.257 186.266 162.384 186.92C162.521 187.564 162.77 188.258 163.131 189H159.059C158.951 188.727 158.819 188.321 158.663 187.784C158.595 187.54 158.546 187.379 158.517 187.301C157.813 187.984 157.062 188.497 156.261 188.839C155.46 189.181 154.605 189.352 153.697 189.352C152.096 189.352 150.831 188.917 149.903 188.048C148.985 187.179 148.526 186.08 148.526 184.752C148.526 183.873 148.736 183.092 149.156 182.408C149.576 181.715 150.162 181.188 150.914 180.826C151.676 180.455 152.77 180.133 154.195 179.859C156.119 179.498 157.452 179.161 158.194 178.849V178.438C158.194 177.647 157.999 177.086 157.608 176.754C157.218 176.412 156.48 176.241 155.396 176.241C154.664 176.241 154.093 176.388 153.683 176.681C153.272 176.964 152.94 177.467 152.687 178.189ZM158.194 181.529C157.667 181.705 156.832 181.915 155.689 182.159C154.547 182.403 153.8 182.643 153.448 182.877C152.911 183.258 152.643 183.741 152.643 184.327C152.643 184.903 152.857 185.401 153.287 185.821C153.717 186.241 154.264 186.451 154.928 186.451C155.67 186.451 156.378 186.207 157.052 185.719C157.55 185.348 157.877 184.894 158.033 184.356C158.141 184.005 158.194 183.336 158.194 182.35V181.529ZM176.549 189V186.671C175.982 187.501 175.235 188.155 174.308 188.634C173.39 189.112 172.418 189.352 171.393 189.352C170.348 189.352 169.41 189.122 168.58 188.663C167.75 188.204 167.149 187.56 166.778 186.729C166.407 185.899 166.222 184.752 166.222 183.287V173.443H170.338V180.592C170.338 182.779 170.411 184.122 170.558 184.62C170.714 185.108 170.992 185.499 171.393 185.792C171.793 186.075 172.301 186.217 172.916 186.217C173.619 186.217 174.249 186.026 174.806 185.646C175.362 185.255 175.743 184.776 175.948 184.21C176.153 183.634 176.256 182.232 176.256 180.006V173.443H180.372V189H176.549ZM191.93 182.013L196.148 181.603C196.402 183.019 196.915 184.059 197.687 184.723C198.468 185.387 199.518 185.719 200.836 185.719C202.232 185.719 203.282 185.426 203.985 184.84C204.698 184.244 205.055 183.551 205.055 182.76C205.055 182.252 204.903 181.822 204.601 181.471C204.308 181.109 203.79 180.797 203.048 180.533C202.54 180.357 201.383 180.045 199.576 179.596C197.252 179.02 195.621 178.312 194.684 177.472C193.365 176.29 192.706 174.85 192.706 173.15C192.706 172.057 193.014 171.036 193.629 170.089C194.254 169.132 195.147 168.404 196.31 167.906C197.481 167.408 198.893 167.159 200.543 167.159C203.238 167.159 205.265 167.75 206.622 168.932C207.989 170.113 208.707 171.69 208.775 173.663L204.439 173.854C204.254 172.75 203.854 171.959 203.238 171.48C202.633 170.992 201.72 170.748 200.499 170.748C199.239 170.748 198.253 171.007 197.54 171.524C197.081 171.856 196.852 172.301 196.852 172.857C196.852 173.365 197.066 173.8 197.496 174.161C198.043 174.62 199.371 175.099 201.48 175.597C203.59 176.095 205.147 176.612 206.153 177.149C207.169 177.677 207.96 178.404 208.526 179.332C209.103 180.25 209.391 181.388 209.391 182.745C209.391 183.976 209.049 185.128 208.365 186.202C207.682 187.276 206.715 188.077 205.465 188.604C204.215 189.122 202.657 189.381 200.792 189.381C198.077 189.381 195.992 188.756 194.537 187.506C193.082 186.246 192.213 184.415 191.93 182.013ZM222.018 184.049L226.119 184.737C225.592 186.241 224.757 187.389 223.614 188.18C222.481 188.961 221.061 189.352 219.352 189.352C216.646 189.352 214.645 188.468 213.346 186.7C212.32 185.284 211.808 183.497 211.808 181.339C211.808 178.761 212.481 176.744 213.829 175.289C215.177 173.824 216.881 173.092 218.941 173.092C221.256 173.092 223.082 173.858 224.42 175.392C225.758 176.915 226.397 179.254 226.339 182.408H216.026C216.056 183.629 216.388 184.581 217.022 185.265C217.657 185.938 218.448 186.275 219.396 186.275C220.04 186.275 220.582 186.1 221.021 185.748C221.461 185.396 221.793 184.83 222.018 184.049ZM222.252 179.889C222.223 178.697 221.915 177.794 221.329 177.179C220.743 176.554 220.03 176.241 219.19 176.241C218.292 176.241 217.55 176.568 216.964 177.223C216.378 177.877 216.09 178.766 216.1 179.889H222.252ZM228.258 184.562L232.389 183.932C232.564 184.732 232.921 185.343 233.458 185.763C233.995 186.173 234.747 186.378 235.714 186.378C236.778 186.378 237.579 186.183 238.116 185.792C238.478 185.519 238.658 185.152 238.658 184.693C238.658 184.381 238.561 184.122 238.365 183.917C238.16 183.722 237.701 183.541 236.988 183.375C233.668 182.643 231.563 181.974 230.675 181.368C229.444 180.528 228.829 179.361 228.829 177.867C228.829 176.52 229.361 175.387 230.426 174.469C231.49 173.551 233.141 173.092 235.377 173.092C237.506 173.092 239.088 173.438 240.123 174.132C241.158 174.825 241.871 175.851 242.262 177.208L238.38 177.926C238.214 177.32 237.896 176.856 237.428 176.534C236.969 176.212 236.31 176.051 235.45 176.051C234.366 176.051 233.59 176.202 233.121 176.505C232.809 176.72 232.652 176.998 232.652 177.34C232.652 177.633 232.789 177.882 233.062 178.087C233.434 178.36 234.713 178.746 236.9 179.244C239.098 179.742 240.631 180.353 241.5 181.075C242.359 181.808 242.789 182.828 242.789 184.137C242.789 185.562 242.193 186.788 241.002 187.813C239.811 188.839 238.048 189.352 235.714 189.352C233.595 189.352 231.915 188.922 230.675 188.062C229.444 187.203 228.639 186.036 228.258 184.562ZM249.483 178.189L245.748 177.516C246.168 176.012 246.891 174.898 247.916 174.176C248.941 173.453 250.465 173.092 252.486 173.092C254.322 173.092 255.689 173.312 256.588 173.751C257.486 174.181 258.116 174.732 258.478 175.406C258.849 176.07 259.034 177.296 259.034 179.083L258.99 183.888C258.99 185.255 259.054 186.266 259.181 186.92C259.317 187.564 259.566 188.258 259.928 189H255.855C255.748 188.727 255.616 188.321 255.46 187.784C255.392 187.54 255.343 187.379 255.313 187.301C254.61 187.984 253.858 188.497 253.058 188.839C252.257 189.181 251.402 189.352 250.494 189.352C248.893 189.352 247.628 188.917 246.7 188.048C245.782 187.179 245.323 186.08 245.323 184.752C245.323 183.873 245.533 183.092 245.953 182.408C246.373 181.715 246.959 181.188 247.711 180.826C248.473 180.455 249.566 180.133 250.992 179.859C252.916 179.498 254.249 179.161 254.991 178.849V178.438C254.991 177.647 254.796 177.086 254.405 176.754C254.015 176.412 253.277 176.241 252.193 176.241C251.461 176.241 250.89 176.388 250.479 176.681C250.069 176.964 249.737 177.467 249.483 178.189ZM254.991 181.529C254.464 181.705 253.629 181.915 252.486 182.159C251.344 182.403 250.597 182.643 250.245 182.877C249.708 183.258 249.439 183.741 249.439 184.327C249.439 184.903 249.654 185.401 250.084 185.821C250.514 186.241 251.061 186.451 251.725 186.451C252.467 186.451 253.175 186.207 253.849 185.719C254.347 185.348 254.674 184.894 254.83 184.356C254.938 184.005 254.991 183.336 254.991 182.35V181.529ZM271.529 189V167.525H275.748L284.537 181.866V167.525H288.565V189H284.215L275.558 174.996V189H271.529ZM292.184 181.002C292.184 179.635 292.521 178.312 293.194 177.032C293.868 175.753 294.82 174.776 296.051 174.103C297.291 173.429 298.673 173.092 300.196 173.092C302.55 173.092 304.479 173.858 305.982 175.392C307.486 176.915 308.238 178.844 308.238 181.178C308.238 183.531 307.477 185.484 305.953 187.037C304.439 188.58 302.53 189.352 300.226 189.352C298.8 189.352 297.438 189.029 296.139 188.385C294.85 187.74 293.868 186.798 293.194 185.558C292.521 184.308 292.184 182.789 292.184 181.002ZM296.402 181.222C296.402 182.765 296.769 183.946 297.501 184.767C298.233 185.587 299.137 185.997 300.211 185.997C301.285 185.997 302.184 185.587 302.906 184.767C303.639 183.946 304.005 182.755 304.005 181.192C304.005 179.669 303.639 178.497 302.906 177.677C302.184 176.856 301.285 176.446 300.211 176.446C299.137 176.446 298.233 176.856 297.501 177.677C296.769 178.497 296.402 179.679 296.402 181.222ZM311.476 189V184.884H315.592V189H311.476ZM319.034 184.034L323.019 183.595C323.116 184.405 323.37 185.006 323.78 185.396C324.19 185.787 324.732 185.982 325.406 185.982C326.256 185.982 326.979 185.592 327.574 184.811C328.17 184.029 328.551 182.408 328.717 179.947C327.682 181.148 326.388 181.749 324.835 181.749C323.146 181.749 321.686 181.1 320.455 179.801C319.234 178.492 318.624 176.793 318.624 174.703C318.624 172.525 319.269 170.772 320.558 169.444C321.856 168.106 323.507 167.438 325.509 167.438C327.687 167.438 329.474 168.282 330.87 169.972C332.267 171.651 332.965 174.42 332.965 178.277C332.965 182.203 332.237 185.035 330.782 186.773C329.327 188.512 327.433 189.381 325.099 189.381C323.419 189.381 322.062 188.937 321.026 188.048C319.991 187.149 319.327 185.812 319.034 184.034ZM328.351 175.04C328.351 173.712 328.043 172.682 327.428 171.949C326.822 171.217 326.119 170.851 325.318 170.851C324.557 170.851 323.922 171.153 323.414 171.759C322.916 172.354 322.667 173.336 322.667 174.703C322.667 176.09 322.94 177.11 323.487 177.765C324.034 178.409 324.718 178.731 325.538 178.731C326.329 178.731 326.993 178.419 327.53 177.794C328.077 177.169 328.351 176.251 328.351 175.04ZM335.733 184.034L339.718 183.595C339.815 184.405 340.069 185.006 340.479 185.396C340.89 185.787 341.432 185.982 342.105 185.982C342.955 185.982 343.678 185.592 344.273 184.811C344.869 184.029 345.25 182.408 345.416 179.947C344.381 181.148 343.087 181.749 341.534 181.749C339.845 181.749 338.385 181.1 337.154 179.801C335.934 178.492 335.323 176.793 335.323 174.703C335.323 172.525 335.968 170.772 337.257 169.444C338.556 168.106 340.206 167.438 342.208 167.438C344.386 167.438 346.173 168.282 347.569 169.972C348.966 171.651 349.664 174.42 349.664 178.277C349.664 182.203 348.937 185.035 347.481 186.773C346.026 188.512 344.132 189.381 341.798 189.381C340.118 189.381 338.761 188.937 337.726 188.048C336.69 187.149 336.026 185.812 335.733 184.034ZM345.05 175.04C345.05 173.712 344.742 172.682 344.127 171.949C343.521 171.217 342.818 170.851 342.018 170.851C341.256 170.851 340.621 171.153 340.113 171.759C339.615 172.354 339.366 173.336 339.366 174.703C339.366 176.09 339.64 177.11 340.187 177.765C340.733 178.409 341.417 178.731 342.237 178.731C343.028 178.731 343.692 178.419 344.229 177.794C344.776 177.169 345.05 176.251 345.05 175.04ZM77.9795 225.313H75.1523C73.6582 223.058 72.5205 220.714 71.7393 218.282C70.958 215.851 70.5674 213.497 70.5674 211.222C70.5674 208.399 71.0508 205.729 72.0176 203.209C72.8574 201.021 73.9219 199.005 75.2109 197.159H78.0234C76.6855 200.118 75.7627 202.638 75.2549 204.718C74.7568 206.788 74.5078 208.985 74.5078 211.31C74.5078 212.911 74.6543 214.552 74.9473 216.231C75.25 217.911 75.6602 219.508 76.1777 221.021C76.5195 222.018 77.1201 223.448 77.9795 225.313ZM80.0742 212.013L84.293 211.603C84.5469 213.019 85.0596 214.059 85.8311 214.723C86.6123 215.387 87.6621 215.719 88.9805 215.719C90.377 215.719 91.4268 215.426 92.1299 214.84C92.8428 214.244 93.1992 213.551 93.1992 212.76C93.1992 212.252 93.0479 211.822 92.7451 211.471C92.4521 211.109 91.9346 210.797 91.1924 210.533C90.6846 210.357 89.5273 210.045 87.7207 209.596C85.3965 209.02 83.7656 208.312 82.8281 207.472C81.5098 206.29 80.8506 204.85 80.8506 203.15C80.8506 202.057 81.1582 201.036 81.7734 200.089C82.3984 199.132 83.292 198.404 84.4541 197.906C85.626 197.408 87.0371 197.159 88.6875 197.159C91.3828 197.159 93.4092 197.75 94.7666 198.932C96.1338 200.113 96.8516 201.69 96.9199 203.663L92.584 203.854C92.3984 202.75 91.998 201.959 91.3828 201.48C90.7773 200.992 89.8643 200.748 88.6436 200.748C87.3838 200.748 86.3975 201.007 85.6846 201.524C85.2256 201.856 84.9961 202.301 84.9961 202.857C84.9961 203.365 85.2109 203.8 85.6406 204.161C86.1875 204.62 87.5156 205.099 89.625 205.597C91.7344 206.095 93.292 206.612 94.2979 207.149C95.3135 207.677 96.1045 208.404 96.6709 209.332C97.2471 210.25 97.5352 211.388 97.5352 212.745C97.5352 213.976 97.1934 215.128 96.5098 216.202C95.8262 217.276 94.8594 218.077 93.6094 218.604C92.3594 219.122 90.8018 219.381 88.9365 219.381C86.2217 219.381 84.1367 218.756 82.6816 217.506C81.2266 216.246 80.3574 214.415 80.0742 212.013ZM110.162 214.049L114.264 214.737C113.736 216.241 112.901 217.389 111.759 218.18C110.626 218.961 109.205 219.352 107.496 219.352C104.791 219.352 102.789 218.468 101.49 216.7C100.465 215.284 99.9521 213.497 99.9521 211.339C99.9521 208.761 100.626 206.744 101.974 205.289C103.321 203.824 105.025 203.092 107.086 203.092C109.4 203.092 111.227 203.858 112.564 205.392C113.902 206.915 114.542 209.254 114.483 212.408H104.171C104.2 213.629 104.532 214.581 105.167 215.265C105.802 215.938 106.593 216.275 107.54 216.275C108.185 216.275 108.727 216.1 109.166 215.748C109.605 215.396 109.938 214.83 110.162 214.049ZM110.396 209.889C110.367 208.697 110.06 207.794 109.474 207.179C108.888 206.554 108.175 206.241 107.335 206.241C106.437 206.241 105.694 206.568 105.108 207.223C104.522 207.877 104.234 208.766 104.244 209.889H110.396ZM117.677 219V197.525H121.793V205.26C123.062 203.814 124.566 203.092 126.305 203.092C128.199 203.092 129.767 203.78 131.007 205.157C132.247 206.524 132.867 208.492 132.867 211.061C132.867 213.717 132.232 215.763 130.963 217.198C129.703 218.634 128.17 219.352 126.363 219.352C125.475 219.352 124.596 219.132 123.727 218.692C122.867 218.243 122.125 217.584 121.5 216.715V219H117.677ZM121.764 210.885C121.764 212.496 122.018 213.688 122.525 214.459C123.238 215.553 124.186 216.1 125.367 216.1C126.275 216.1 127.047 215.714 127.682 214.942C128.326 214.161 128.648 212.936 128.648 211.266C128.648 209.488 128.326 208.209 127.682 207.428C127.037 206.637 126.212 206.241 125.206 206.241C124.22 206.241 123.399 206.627 122.745 207.398C122.091 208.16 121.764 209.322 121.764 210.885ZM145.201 214.049L149.303 214.737C148.775 216.241 147.94 217.389 146.798 218.18C145.665 218.961 144.244 219.352 142.535 219.352C139.83 219.352 137.828 218.468 136.529 216.7C135.504 215.284 134.991 213.497 134.991 211.339C134.991 208.761 135.665 206.744 137.013 205.289C138.36 203.824 140.064 203.092 142.125 203.092C144.439 203.092 146.266 203.858 147.604 205.392C148.941 206.915 149.581 209.254 149.522 212.408H139.21C139.239 213.629 139.571 214.581 140.206 215.265C140.841 215.938 141.632 216.275 142.579 216.275C143.224 216.275 143.766 216.1 144.205 215.748C144.645 215.396 144.977 214.83 145.201 214.049ZM145.436 209.889C145.406 208.697 145.099 207.794 144.513 207.179C143.927 206.554 143.214 206.241 142.374 206.241C141.476 206.241 140.733 206.568 140.147 207.223C139.562 207.877 139.273 208.766 139.283 209.889H145.436ZM152.892 219V197.525H157.008V219H152.892ZM171.48 219V216.671C170.914 217.501 170.167 218.155 169.239 218.634C168.321 219.112 167.35 219.352 166.324 219.352C165.279 219.352 164.342 219.122 163.512 218.663C162.682 218.204 162.081 217.56 161.71 216.729C161.339 215.899 161.153 214.752 161.153 213.287V203.443H165.27V210.592C165.27 212.779 165.343 214.122 165.489 214.62C165.646 215.108 165.924 215.499 166.324 215.792C166.725 216.075 167.232 216.217 167.848 216.217C168.551 216.217 169.181 216.026 169.737 215.646C170.294 215.255 170.675 214.776 170.88 214.21C171.085 213.634 171.188 212.232 171.188 210.006V203.443H175.304V219H171.48ZM179.273 203.443H183.067V205.567C184.425 203.917 186.041 203.092 187.916 203.092C188.912 203.092 189.776 203.297 190.509 203.707C191.241 204.117 191.842 204.737 192.311 205.567C192.994 204.737 193.731 204.117 194.522 203.707C195.313 203.297 196.158 203.092 197.057 203.092C198.199 203.092 199.166 203.326 199.957 203.795C200.748 204.254 201.339 204.933 201.729 205.831C202.013 206.495 202.154 207.569 202.154 209.054V219H198.038V210.108C198.038 208.565 197.896 207.569 197.613 207.12C197.232 206.534 196.646 206.241 195.855 206.241C195.279 206.241 194.737 206.417 194.229 206.769C193.722 207.12 193.355 207.638 193.131 208.321C192.906 208.995 192.794 210.064 192.794 211.529V219H188.678V210.475C188.678 208.961 188.604 207.984 188.458 207.545C188.312 207.105 188.082 206.778 187.77 206.563C187.467 206.349 187.052 206.241 186.524 206.241C185.89 206.241 185.318 206.412 184.811 206.754C184.303 207.096 183.937 207.589 183.712 208.233C183.497 208.878 183.39 209.947 183.39 211.441V219H179.273V203.443ZM214.62 219V197.525H218.736V219H214.62ZM226.046 208.189L222.311 207.516C222.73 206.012 223.453 204.898 224.479 204.176C225.504 203.453 227.027 203.092 229.049 203.092C230.885 203.092 232.252 203.312 233.15 203.751C234.049 204.181 234.679 204.732 235.04 205.406C235.411 206.07 235.597 207.296 235.597 209.083L235.553 213.888C235.553 215.255 235.616 216.266 235.743 216.92C235.88 217.564 236.129 218.258 236.49 219H232.418C232.311 218.727 232.179 218.321 232.022 217.784C231.954 217.54 231.905 217.379 231.876 217.301C231.173 217.984 230.421 218.497 229.62 218.839C228.819 219.181 227.965 219.352 227.057 219.352C225.455 219.352 224.19 218.917 223.263 218.048C222.345 217.179 221.886 216.08 221.886 214.752C221.886 213.873 222.096 213.092 222.516 212.408C222.936 211.715 223.521 211.188 224.273 210.826C225.035 210.455 226.129 210.133 227.555 209.859C229.479 209.498 230.812 209.161 231.554 208.849V208.438C231.554 207.647 231.358 207.086 230.968 206.754C230.577 206.412 229.84 206.241 228.756 206.241C228.023 206.241 227.452 206.388 227.042 206.681C226.632 206.964 226.3 207.467 226.046 208.189ZM231.554 211.529C231.026 211.705 230.191 211.915 229.049 212.159C227.906 212.403 227.159 212.643 226.808 212.877C226.271 213.258 226.002 213.741 226.002 214.327C226.002 214.903 226.217 215.401 226.646 215.821C227.076 216.241 227.623 216.451 228.287 216.451C229.029 216.451 229.737 216.207 230.411 215.719C230.909 215.348 231.236 214.894 231.393 214.356C231.5 214.005 231.554 213.336 231.554 212.35V211.529ZM239.361 203.443H243.155V205.567C244.513 203.917 246.129 203.092 248.004 203.092C249 203.092 249.864 203.297 250.597 203.707C251.329 204.117 251.93 204.737 252.398 205.567C253.082 204.737 253.819 204.117 254.61 203.707C255.401 203.297 256.246 203.092 257.145 203.092C258.287 203.092 259.254 203.326 260.045 203.795C260.836 204.254 261.427 204.933 261.817 205.831C262.101 206.495 262.242 207.569 262.242 209.054V219H258.126V210.108C258.126 208.565 257.984 207.569 257.701 207.12C257.32 206.534 256.734 206.241 255.943 206.241C255.367 206.241 254.825 206.417 254.317 206.769C253.81 207.12 253.443 207.638 253.219 208.321C252.994 208.995 252.882 210.064 252.882 211.529V219H248.766V210.475C248.766 208.961 248.692 207.984 248.546 207.545C248.399 207.105 248.17 206.778 247.857 206.563C247.555 206.349 247.14 206.241 246.612 206.241C245.978 206.241 245.406 206.412 244.898 206.754C244.391 207.096 244.024 207.589 243.8 208.233C243.585 208.878 243.478 209.947 243.478 211.441V219H239.361V203.443ZM266.241 203.443H270.079V205.729C270.577 204.947 271.251 204.312 272.101 203.824C272.95 203.336 273.893 203.092 274.928 203.092C276.734 203.092 278.268 203.8 279.527 205.216C280.787 206.632 281.417 208.604 281.417 211.134C281.417 213.731 280.782 215.753 279.513 217.198C278.243 218.634 276.705 219.352 274.898 219.352C274.039 219.352 273.258 219.181 272.555 218.839C271.861 218.497 271.129 217.911 270.357 217.081V224.918H266.241V203.443ZM270.313 210.958C270.313 212.706 270.66 214 271.354 214.84C272.047 215.67 272.892 216.085 273.888 216.085C274.845 216.085 275.641 215.704 276.275 214.942C276.91 214.171 277.228 212.911 277.228 211.163C277.228 209.532 276.9 208.321 276.246 207.53C275.592 206.739 274.781 206.344 273.814 206.344C272.809 206.344 271.974 206.734 271.31 207.516C270.646 208.287 270.313 209.435 270.313 210.958ZM294.938 219V216.671C294.371 217.501 293.624 218.155 292.696 218.634C291.778 219.112 290.807 219.352 289.781 219.352C288.736 219.352 287.799 219.122 286.969 218.663C286.139 218.204 285.538 217.56 285.167 216.729C284.796 215.899 284.61 214.752 284.61 213.287V203.443H288.727V210.592C288.727 212.779 288.8 214.122 288.946 214.62C289.103 215.108 289.381 215.499 289.781 215.792C290.182 216.075 290.689 216.217 291.305 216.217C292.008 216.217 292.638 216.026 293.194 215.646C293.751 215.255 294.132 214.776 294.337 214.21C294.542 213.634 294.645 212.232 294.645 210.006V203.443H298.761V219H294.938ZM311.08 203.443H314.874V205.567C316.231 203.917 317.848 203.092 319.723 203.092C320.719 203.092 321.583 203.297 322.315 203.707C323.048 204.117 323.648 204.737 324.117 205.567C324.801 204.737 325.538 204.117 326.329 203.707C327.12 203.297 327.965 203.092 328.863 203.092C330.006 203.092 330.973 203.326 331.764 203.795C332.555 204.254 333.146 204.933 333.536 205.831C333.819 206.495 333.961 207.569 333.961 209.054V219H329.845V210.108C329.845 208.565 329.703 207.569 329.42 207.12C329.039 206.534 328.453 206.241 327.662 206.241C327.086 206.241 326.544 206.417 326.036 206.769C325.528 207.12 325.162 207.638 324.938 208.321C324.713 208.995 324.601 210.064 324.601 211.529V219H320.484V210.475C320.484 208.961 320.411 207.984 320.265 207.545C320.118 207.105 319.889 206.778 319.576 206.563C319.273 206.349 318.858 206.241 318.331 206.241C317.696 206.241 317.125 206.412 316.617 206.754C316.109 207.096 315.743 207.589 315.519 208.233C315.304 208.878 315.196 209.947 315.196 211.441V219H311.08V203.443ZM347.086 214.049L351.188 214.737C350.66 216.241 349.825 217.389 348.683 218.18C347.55 218.961 346.129 219.352 344.42 219.352C341.715 219.352 339.713 218.468 338.414 216.7C337.389 215.284 336.876 213.497 336.876 211.339C336.876 208.761 337.55 206.744 338.897 205.289C340.245 203.824 341.949 203.092 344.01 203.092C346.324 203.092 348.15 203.858 349.488 205.392C350.826 206.915 351.466 209.254 351.407 212.408H341.095C341.124 213.629 341.456 214.581 342.091 215.265C342.726 215.938 343.517 216.275 344.464 216.275C345.108 216.275 345.65 216.1 346.09 215.748C346.529 215.396 346.861 214.83 347.086 214.049ZM347.32 209.889C347.291 208.697 346.983 207.794 346.397 207.179C345.812 206.554 345.099 206.241 344.259 206.241C343.36 206.241 342.618 206.568 342.032 207.223C341.446 207.877 341.158 208.766 341.168 209.889H347.32ZM358.717 219H354.601V203.443H358.424V205.655C359.078 204.61 359.664 203.922 360.182 203.59C360.709 203.258 361.305 203.092 361.969 203.092C362.906 203.092 363.81 203.351 364.679 203.868L363.404 207.457C362.711 207.008 362.066 206.783 361.471 206.783C360.895 206.783 360.406 206.944 360.006 207.267C359.605 207.579 359.288 208.15 359.054 208.98C358.829 209.811 358.717 211.549 358.717 214.195V219ZM369.542 208.189L365.807 207.516C366.227 206.012 366.949 204.898 367.975 204.176C369 203.453 370.523 203.092 372.545 203.092C374.381 203.092 375.748 203.312 376.646 203.751C377.545 204.181 378.175 204.732 378.536 205.406C378.907 206.07 379.093 207.296 379.093 209.083L379.049 213.888C379.049 215.255 379.112 216.266 379.239 216.92C379.376 217.564 379.625 218.258 379.986 219H375.914C375.807 218.727 375.675 218.321 375.519 217.784C375.45 217.54 375.401 217.379 375.372 217.301C374.669 217.984 373.917 218.497 373.116 218.839C372.315 219.181 371.461 219.352 370.553 219.352C368.951 219.352 367.687 218.917 366.759 218.048C365.841 217.179 365.382 216.08 365.382 214.752C365.382 213.873 365.592 213.092 366.012 212.408C366.432 211.715 367.018 211.188 367.77 210.826C368.531 210.455 369.625 210.133 371.051 209.859C372.975 209.498 374.308 209.161 375.05 208.849V208.438C375.05 207.647 374.854 207.086 374.464 206.754C374.073 206.412 373.336 206.241 372.252 206.241C371.52 206.241 370.948 206.388 370.538 206.681C370.128 206.964 369.796 207.467 369.542 208.189ZM375.05 211.529C374.522 211.705 373.688 211.915 372.545 212.159C371.402 212.403 370.655 212.643 370.304 212.877C369.767 213.258 369.498 213.741 369.498 214.327C369.498 214.903 369.713 215.401 370.143 215.821C370.572 216.241 371.119 216.451 371.783 216.451C372.525 216.451 373.233 216.207 373.907 215.719C374.405 215.348 374.732 214.894 374.889 214.356C374.996 214.005 375.05 213.336 375.05 212.35V211.529ZM387.267 197.525V205.421C388.595 203.868 390.182 203.092 392.027 203.092C392.975 203.092 393.829 203.268 394.591 203.619C395.353 203.971 395.924 204.42 396.305 204.967C396.695 205.514 396.959 206.119 397.096 206.783C397.242 207.447 397.315 208.478 397.315 209.874V219H393.199V210.782C393.199 209.151 393.121 208.116 392.965 207.677C392.809 207.237 392.53 206.891 392.13 206.637C391.739 206.373 391.246 206.241 390.65 206.241C389.967 206.241 389.356 206.407 388.819 206.739C388.282 207.071 387.887 207.574 387.633 208.248C387.389 208.912 387.267 209.898 387.267 211.207V219H383.15V197.525H387.267ZM409.825 219V197.525H416.314L420.211 212.174L424.063 197.525H430.567V219H426.539V202.096L422.276 219H418.102L413.854 202.096V219H409.825ZM437.921 208.189L434.186 207.516C434.605 206.012 435.328 204.898 436.354 204.176C437.379 203.453 438.902 203.092 440.924 203.092C442.76 203.092 444.127 203.312 445.025 203.751C445.924 204.181 446.554 204.732 446.915 205.406C447.286 206.07 447.472 207.296 447.472 209.083L447.428 213.888C447.428 215.255 447.491 216.266 447.618 216.92C447.755 217.564 448.004 218.258 448.365 219H444.293C444.186 218.727 444.054 218.321 443.897 217.784C443.829 217.54 443.78 217.379 443.751 217.301C443.048 217.984 442.296 218.497 441.495 218.839C440.694 219.181 439.84 219.352 438.932 219.352C437.33 219.352 436.065 218.917 435.138 218.048C434.22 217.179 433.761 216.08 433.761 214.752C433.761 213.873 433.971 213.092 434.391 212.408C434.811 211.715 435.396 211.188 436.148 210.826C436.91 210.455 438.004 210.133 439.43 209.859C441.354 209.498 442.687 209.161 443.429 208.849V208.438C443.429 207.647 443.233 207.086 442.843 206.754C442.452 206.412 441.715 206.241 440.631 206.241C439.898 206.241 439.327 206.388 438.917 206.681C438.507 206.964 438.175 207.467 437.921 208.189ZM443.429 211.529C442.901 211.705 442.066 211.915 440.924 212.159C439.781 212.403 439.034 212.643 438.683 212.877C438.146 213.258 437.877 213.741 437.877 214.327C437.877 214.903 438.092 215.401 438.521 215.821C438.951 216.241 439.498 216.451 440.162 216.451C440.904 216.451 441.612 216.207 442.286 215.719C442.784 215.348 443.111 214.894 443.268 214.356C443.375 214.005 443.429 213.336 443.429 212.35V211.529ZM451.397 219V197.525H455.514V208.922L460.333 203.443H465.401L460.084 209.127L465.782 219H461.344L457.433 212.013L455.514 214.02V219H451.397ZM467.291 211.002C467.291 209.635 467.628 208.312 468.302 207.032C468.976 205.753 469.928 204.776 471.158 204.103C472.398 203.429 473.78 203.092 475.304 203.092C477.657 203.092 479.586 203.858 481.09 205.392C482.594 206.915 483.346 208.844 483.346 211.178C483.346 213.531 482.584 215.484 481.061 217.037C479.547 218.58 477.638 219.352 475.333 219.352C473.907 219.352 472.545 219.029 471.246 218.385C469.957 217.74 468.976 216.798 468.302 215.558C467.628 214.308 467.291 212.789 467.291 211.002ZM471.51 211.222C471.51 212.765 471.876 213.946 472.608 214.767C473.341 215.587 474.244 215.997 475.318 215.997C476.393 215.997 477.291 215.587 478.014 214.767C478.746 213.946 479.112 212.755 479.112 211.192C479.112 209.669 478.746 208.497 478.014 207.677C477.291 206.856 476.393 206.446 475.318 206.446C474.244 206.446 473.341 206.856 472.608 207.677C471.876 208.497 471.51 209.679 471.51 211.222ZM494.977 197.525H503.561C505.26 197.525 506.524 197.599 507.354 197.745C508.194 197.882 508.941 198.175 509.596 198.624C510.26 199.073 510.812 199.674 511.251 200.426C511.69 201.168 511.91 202.003 511.91 202.931C511.91 203.937 511.637 204.859 511.09 205.699C510.553 206.539 509.82 207.169 508.893 207.589C510.201 207.97 511.207 208.619 511.91 209.537C512.613 210.455 512.965 211.534 512.965 212.774C512.965 213.751 512.735 214.703 512.276 215.631C511.827 216.549 511.207 217.286 510.416 217.843C509.635 218.39 508.668 218.727 507.516 218.854C506.793 218.932 505.05 218.98 502.286 219H494.977V197.525ZM499.312 201.1V206.065H502.154C503.844 206.065 504.894 206.041 505.304 205.992C506.046 205.904 506.627 205.65 507.047 205.23C507.477 204.801 507.691 204.239 507.691 203.546C507.691 202.882 507.506 202.345 507.135 201.935C506.773 201.515 506.231 201.261 505.509 201.173C505.079 201.124 503.844 201.1 501.803 201.1H499.312ZM499.312 209.64V215.382H503.326C504.889 215.382 505.88 215.338 506.3 215.25C506.944 215.133 507.467 214.85 507.867 214.4C508.277 213.941 508.482 213.331 508.482 212.569C508.482 211.925 508.326 211.378 508.014 210.929C507.701 210.479 507.247 210.152 506.651 209.947C506.065 209.742 504.786 209.64 502.813 209.64H499.312ZM520.553 219H516.437V203.443H520.26V205.655C520.914 204.61 521.5 203.922 522.018 203.59C522.545 203.258 523.141 203.092 523.805 203.092C524.742 203.092 525.646 203.351 526.515 203.868L525.24 207.457C524.547 207.008 523.902 206.783 523.307 206.783C522.73 206.783 522.242 206.944 521.842 207.267C521.441 207.579 521.124 208.15 520.89 208.98C520.665 209.811 520.553 211.549 520.553 214.195V219ZM528.302 201.334V197.525H532.418V201.334H528.302ZM528.302 219V203.443H532.418V219H528.302ZM536.344 203.443H540.138V205.567C541.495 203.917 543.111 203.092 544.986 203.092C545.982 203.092 546.847 203.297 547.579 203.707C548.312 204.117 548.912 204.737 549.381 205.567C550.064 204.737 550.802 204.117 551.593 203.707C552.384 203.297 553.229 203.092 554.127 203.092C555.27 203.092 556.236 203.326 557.027 203.795C557.818 204.254 558.409 204.933 558.8 205.831C559.083 206.495 559.225 207.569 559.225 209.054V219H555.108V210.108C555.108 208.565 554.967 207.569 554.684 207.12C554.303 206.534 553.717 206.241 552.926 206.241C552.35 206.241 551.808 206.417 551.3 206.769C550.792 207.12 550.426 207.638 550.201 208.321C549.977 208.995 549.864 210.064 549.864 211.529V219H545.748V210.475C545.748 208.961 545.675 207.984 545.528 207.545C545.382 207.105 545.152 206.778 544.84 206.563C544.537 206.349 544.122 206.241 543.595 206.241C542.96 206.241 542.389 206.412 541.881 206.754C541.373 207.096 541.007 207.589 540.782 208.233C540.567 208.878 540.46 209.947 540.46 211.441V219H536.344V203.443ZM562.389 211.002C562.389 209.635 562.726 208.312 563.399 207.032C564.073 205.753 565.025 204.776 566.256 204.103C567.496 203.429 568.878 203.092 570.401 203.092C572.755 203.092 574.684 203.858 576.188 205.392C577.691 206.915 578.443 208.844 578.443 211.178C578.443 213.531 577.682 215.484 576.158 217.037C574.645 218.58 572.735 219.352 570.431 219.352C569.005 219.352 567.643 219.029 566.344 218.385C565.055 217.74 564.073 216.798 563.399 215.558C562.726 214.308 562.389 212.789 562.389 211.002ZM566.607 211.222C566.607 212.765 566.974 213.946 567.706 214.767C568.438 215.587 569.342 215.997 570.416 215.997C571.49 215.997 572.389 215.587 573.111 214.767C573.844 213.946 574.21 212.755 574.21 211.192C574.21 209.669 573.844 208.497 573.111 207.677C572.389 206.856 571.49 206.446 570.416 206.446C569.342 206.446 568.438 206.856 567.706 207.677C566.974 208.497 566.607 209.679 566.607 211.222ZM581.505 219V197.525H585.621V205.26C586.891 203.814 588.395 203.092 590.133 203.092C592.027 203.092 593.595 203.78 594.835 205.157C596.075 206.524 596.695 208.492 596.695 211.061C596.695 213.717 596.061 215.763 594.791 217.198C593.531 218.634 591.998 219.352 590.191 219.352C589.303 219.352 588.424 219.132 587.555 218.692C586.695 218.243 585.953 217.584 585.328 216.715V219H581.505ZM585.592 210.885C585.592 212.496 585.846 213.688 586.354 214.459C587.066 215.553 588.014 216.1 589.195 216.1C590.104 216.1 590.875 215.714 591.51 214.942C592.154 214.161 592.477 212.936 592.477 211.266C592.477 209.488 592.154 208.209 591.51 207.428C590.865 206.637 590.04 206.241 589.034 206.241C588.048 206.241 587.228 206.627 586.573 207.398C585.919 208.16 585.592 209.322 585.592 210.885ZM598.878 225.313C599.688 223.575 600.26 222.242 600.592 221.314C600.924 220.387 601.231 219.317 601.515 218.106C601.798 216.896 602.008 215.748 602.145 214.664C602.281 213.57 602.35 212.452 602.35 211.31C602.35 208.985 602.101 206.788 601.603 204.718C601.104 202.638 600.187 200.118 598.849 197.159H601.646C603.121 199.259 604.264 201.485 605.074 203.839C605.895 206.192 606.305 208.58 606.305 211.002C606.305 213.043 605.982 215.23 605.338 217.564C604.605 220.182 603.399 222.765 601.72 225.313H598.878Z" fill="black"/>
<path d="M71.8809 264.388L72.4424 262.655C73.7363 263.111 74.6763 263.505 75.2622 263.839C75.1076 262.366 75.0262 261.353 75.0181 260.799H76.7881C76.7637 261.605 76.6701 262.614 76.5073 263.827C77.3455 263.403 78.3058 263.013 79.3882 262.655L79.9497 264.388C78.9162 264.73 77.903 264.958 76.9102 265.072C77.4066 265.503 78.1064 266.272 79.0098 267.379L77.5449 268.417C77.0729 267.774 76.5155 266.899 75.8726 265.792C75.2703 266.939 74.7414 267.814 74.2856 268.417L72.8452 267.379C73.7892 266.215 74.4647 265.446 74.8716 265.072C73.8218 264.868 72.8249 264.64 71.8809 264.388ZM79.791 279L83.5386 261.104H85.9189L84.3687 268.539H93.646L95.1963 261.104H97.5889L93.8535 279H91.4609L93.2188 270.565H83.9536L82.1836 279H79.791ZM106.378 277.389C105.613 278.048 104.876 278.532 104.168 278.841C103.46 279.142 102.704 279.293 101.898 279.293C100.702 279.293 99.7373 278.943 99.0049 278.243C98.2725 277.535 97.9062 276.632 97.9062 275.533C97.9062 274.809 98.069 274.17 98.3945 273.617C98.7282 273.055 99.1676 272.608 99.7129 272.274C100.258 271.932 100.925 271.688 101.715 271.542C102.211 271.444 103.151 271.367 104.535 271.31C105.926 271.253 106.923 271.106 107.525 270.87C107.696 270.268 107.782 269.767 107.782 269.369C107.782 268.856 107.595 268.453 107.22 268.16C106.708 267.753 105.959 267.55 104.974 267.55C104.046 267.55 103.285 267.757 102.691 268.172C102.105 268.579 101.678 269.161 101.41 269.918L99.1758 269.723C99.6315 268.437 100.352 267.452 101.336 266.769C102.329 266.085 103.578 265.743 105.084 265.743C106.687 265.743 107.957 266.126 108.893 266.891C109.609 267.46 109.967 268.201 109.967 269.112C109.967 269.804 109.865 270.606 109.662 271.517L108.941 274.74C108.714 275.765 108.6 276.599 108.6 277.242C108.6 277.649 108.689 278.235 108.868 279H106.634C106.512 278.577 106.427 278.04 106.378 277.389ZM107.196 272.433C106.887 272.555 106.553 272.648 106.195 272.713C105.845 272.778 105.255 272.848 104.425 272.921C103.139 273.035 102.232 273.181 101.703 273.36C101.174 273.531 100.775 273.808 100.506 274.19C100.238 274.573 100.104 274.996 100.104 275.46C100.104 276.078 100.315 276.587 100.738 276.986C101.17 277.385 101.78 277.584 102.569 277.584C103.302 277.584 104.006 277.393 104.681 277.01C105.357 276.62 105.89 276.078 106.28 275.387C106.671 274.695 106.976 273.71 107.196 272.433ZM120.294 277.12C119.033 278.569 117.714 279.293 116.339 279.293C115.11 279.293 114.085 278.841 113.263 277.938C112.449 277.027 112.042 275.708 112.042 273.983C112.042 272.404 112.363 270.964 113.006 269.662C113.657 268.351 114.467 267.371 115.436 266.72C116.412 266.069 117.389 265.743 118.365 265.743C119.977 265.743 121.193 266.52 122.015 268.075L123.48 261.104H125.677L121.942 279H119.903L120.294 277.12ZM114.239 273.568C114.239 274.471 114.329 275.183 114.508 275.704C114.687 276.225 114.992 276.66 115.423 277.01C115.855 277.352 116.371 277.523 116.974 277.523C117.975 277.523 118.882 277.002 119.696 275.96C120.786 274.577 121.332 272.868 121.332 270.833C121.332 269.808 121.063 269.007 120.526 268.429C119.989 267.851 119.313 267.562 118.5 267.562C117.971 267.562 117.486 267.68 117.047 267.916C116.616 268.152 116.184 268.555 115.753 269.125C115.33 269.686 114.972 270.402 114.679 271.273C114.386 272.144 114.239 272.909 114.239 273.568ZM128.607 263.607L129.132 261.104H131.329L130.804 263.607H128.607ZM125.384 279L128.094 266.036H130.304L127.594 279H125.384ZM131.036 279L133.746 266.036H135.699L135.15 268.685C135.817 267.684 136.468 266.944 137.103 266.463C137.746 265.983 138.401 265.743 139.068 265.743C139.508 265.743 140.049 265.902 140.692 266.219L139.789 268.27C139.406 267.993 138.987 267.855 138.531 267.855C137.758 267.855 136.965 268.286 136.151 269.149C135.337 270.012 134.698 271.562 134.234 273.8L133.136 279H131.036ZM142.499 263.607L143.023 261.104H145.221L144.696 263.607H142.499ZM139.276 279L141.986 266.036H144.195L141.485 279H139.276ZM144.757 279L148.492 261.104H150.702L146.966 279H144.757ZM159.234 277.389C158.469 278.048 157.733 278.532 157.025 278.841C156.317 279.142 155.56 279.293 154.754 279.293C153.558 279.293 152.594 278.943 151.861 278.243C151.129 277.535 150.763 276.632 150.763 275.533C150.763 274.809 150.925 274.17 151.251 273.617C151.585 273.055 152.024 272.608 152.569 272.274C153.115 271.932 153.782 271.688 154.571 271.542C155.068 271.444 156.008 271.367 157.391 271.31C158.783 271.253 159.78 271.106 160.382 270.87C160.553 270.268 160.638 269.767 160.638 269.369C160.638 268.856 160.451 268.453 160.077 268.16C159.564 267.753 158.815 267.55 157.831 267.55C156.903 267.55 156.142 267.757 155.548 268.172C154.962 268.579 154.535 269.161 154.266 269.918L152.032 269.723C152.488 268.437 153.208 267.452 154.193 266.769C155.186 266.085 156.435 265.743 157.94 265.743C159.544 265.743 160.813 266.126 161.749 266.891C162.465 267.46 162.823 268.201 162.823 269.112C162.823 269.804 162.722 270.606 162.518 271.517L161.798 274.74C161.57 275.765 161.456 276.599 161.456 277.242C161.456 277.649 161.546 278.235 161.725 279H159.491C159.369 278.577 159.283 278.04 159.234 277.389ZM160.052 272.433C159.743 272.555 159.409 272.648 159.051 272.713C158.701 272.778 158.111 272.848 157.281 272.921C155.995 273.035 155.088 273.181 154.559 273.36C154.03 273.531 153.631 273.808 153.363 274.19C153.094 274.573 152.96 274.996 152.96 275.46C152.96 276.078 153.172 276.587 153.595 276.986C154.026 277.385 154.636 277.584 155.426 277.584C156.158 277.584 156.862 277.393 157.538 277.01C158.213 276.62 158.746 276.078 159.137 275.387C159.527 274.695 159.833 273.71 160.052 272.433ZM164.41 279L168.146 261.104H170.355L168.927 267.977C169.749 267.18 170.514 266.61 171.222 266.268C171.93 265.918 172.658 265.743 173.407 265.743C174.481 265.743 175.315 266.028 175.909 266.598C176.503 267.159 176.8 267.904 176.8 268.832C176.8 269.287 176.67 270.125 176.41 271.346L174.811 279H172.601L174.249 271.151C174.485 270.012 174.603 269.295 174.603 269.002C174.603 268.579 174.457 268.233 174.164 267.965C173.871 267.696 173.447 267.562 172.894 267.562C172.097 267.562 171.336 267.774 170.611 268.197C169.887 268.612 169.317 269.186 168.902 269.918C168.495 270.642 168.121 271.814 167.779 273.434L166.62 279H164.41ZM194.024 277.12C192.763 278.569 191.445 279.293 190.069 279.293C188.84 279.293 187.815 278.841 186.993 277.938C186.179 277.027 185.772 275.708 185.772 273.983C185.772 272.404 186.094 270.964 186.737 269.662C187.388 268.351 188.198 267.371 189.166 266.72C190.143 266.069 191.119 265.743 192.096 265.743C193.707 265.743 194.924 266.52 195.746 268.075L197.21 261.104H199.408L195.672 279H193.634L194.024 277.12ZM187.97 273.568C187.97 274.471 188.059 275.183 188.238 275.704C188.417 276.225 188.722 276.66 189.154 277.01C189.585 277.352 190.102 277.523 190.704 277.523C191.705 277.523 192.612 277.002 193.426 275.96C194.517 274.577 195.062 272.868 195.062 270.833C195.062 269.808 194.793 269.007 194.256 268.429C193.719 267.851 193.044 267.562 192.23 267.562C191.701 267.562 191.217 267.68 190.777 267.916C190.346 268.152 189.915 268.555 189.483 269.125C189.06 269.686 188.702 270.402 188.409 271.273C188.116 272.144 187.97 272.909 187.97 273.568ZM207.94 277.389C207.175 278.048 206.439 278.532 205.731 278.841C205.023 279.142 204.266 279.293 203.46 279.293C202.264 279.293 201.3 278.943 200.567 278.243C199.835 277.535 199.469 276.632 199.469 275.533C199.469 274.809 199.632 274.17 199.957 273.617C200.291 273.055 200.73 272.608 201.275 272.274C201.821 271.932 202.488 271.688 203.277 271.542C203.774 271.444 204.714 271.367 206.097 271.31C207.489 271.253 208.486 271.106 209.088 270.87C209.259 270.268 209.344 269.767 209.344 269.369C209.344 268.856 209.157 268.453 208.783 268.16C208.27 267.753 207.521 267.55 206.537 267.55C205.609 267.55 204.848 267.757 204.254 268.172C203.668 268.579 203.241 269.161 202.972 269.918L200.738 269.723C201.194 268.437 201.914 267.452 202.899 266.769C203.892 266.085 205.141 265.743 206.646 265.743C208.25 265.743 209.519 266.126 210.455 266.891C211.171 267.46 211.529 268.201 211.529 269.112C211.529 269.804 211.428 270.606 211.224 271.517L210.504 274.74C210.276 275.765 210.162 276.599 210.162 277.242C210.162 277.649 210.252 278.235 210.431 279H208.197C208.075 278.577 207.989 278.04 207.94 277.389ZM208.758 272.433C208.449 272.555 208.115 272.648 207.757 272.713C207.407 272.778 206.817 272.848 205.987 272.921C204.701 273.035 203.794 273.181 203.265 273.36C202.736 273.531 202.337 273.808 202.069 274.19C201.8 274.573 201.666 274.996 201.666 275.46C201.666 276.078 201.878 276.587 202.301 276.986C202.732 277.385 203.342 277.584 204.132 277.584C204.864 277.584 205.568 277.393 206.244 277.01C206.919 276.62 207.452 276.078 207.843 275.387C208.233 274.695 208.539 273.71 208.758 272.433ZM213.116 279L215.826 266.036H217.828L217.352 268.294C218.223 267.407 219.037 266.76 219.793 266.354C220.55 265.947 221.323 265.743 222.113 265.743C223.163 265.743 223.985 266.028 224.579 266.598C225.181 267.167 225.482 267.928 225.482 268.88C225.482 269.361 225.376 270.117 225.165 271.151L223.517 279H221.307L223.028 270.785C223.199 269.987 223.285 269.397 223.285 269.015C223.285 268.583 223.134 268.233 222.833 267.965C222.54 267.696 222.113 267.562 221.551 267.562C220.42 267.562 219.411 267.969 218.524 268.783C217.645 269.597 216.998 270.992 216.583 272.97L215.326 279H213.116ZM233.99 279L236.7 266.036H238.653L238.104 268.685C238.771 267.684 239.422 266.944 240.057 266.463C240.7 265.983 241.355 265.743 242.022 265.743C242.462 265.743 243.003 265.902 243.646 266.219L242.743 268.27C242.36 267.993 241.941 267.855 241.485 267.855C240.712 267.855 239.919 268.286 239.105 269.149C238.291 270.012 237.652 271.562 237.188 273.8L236.09 279H233.99ZM251.056 277.389C250.291 278.048 249.554 278.532 248.846 278.841C248.138 279.142 247.381 279.293 246.576 279.293C245.379 279.293 244.415 278.943 243.683 278.243C242.95 277.535 242.584 276.632 242.584 275.533C242.584 274.809 242.747 274.17 243.072 273.617C243.406 273.055 243.845 272.608 244.391 272.274C244.936 271.932 245.603 271.688 246.393 271.542C246.889 271.444 247.829 271.367 249.212 271.31C250.604 271.253 251.601 271.106 252.203 270.87C252.374 270.268 252.459 269.767 252.459 269.369C252.459 268.856 252.272 268.453 251.898 268.16C251.385 267.753 250.637 267.55 249.652 267.55C248.724 267.55 247.963 267.757 247.369 268.172C246.783 268.579 246.356 269.161 246.087 269.918L243.854 269.723C244.309 268.437 245.029 267.452 246.014 266.769C247.007 266.085 248.256 265.743 249.762 265.743C251.365 265.743 252.634 266.126 253.57 266.891C254.286 267.46 254.645 268.201 254.645 269.112C254.645 269.804 254.543 270.606 254.339 271.517L253.619 274.74C253.391 275.765 253.277 276.599 253.277 277.242C253.277 277.649 253.367 278.235 253.546 279H251.312C251.19 278.577 251.104 278.04 251.056 277.389ZM251.874 272.433C251.564 272.555 251.231 272.648 250.873 272.713C250.523 272.778 249.933 272.848 249.103 272.921C247.817 273.035 246.909 273.181 246.38 273.36C245.851 273.531 245.453 273.808 245.184 274.19C244.916 274.573 244.781 274.996 244.781 275.46C244.781 276.078 244.993 276.587 245.416 276.986C245.847 277.385 246.458 277.584 247.247 277.584C247.979 277.584 248.683 277.393 249.359 277.01C250.034 276.62 250.567 276.078 250.958 275.387C251.349 274.695 251.654 273.71 251.874 272.433ZM255.401 284.005L255.536 281.93C255.991 282.06 256.435 282.125 256.866 282.125C257.314 282.125 257.676 282.023 257.953 281.82C258.311 281.551 258.701 281.047 259.125 280.306L259.833 279.037L257.672 266.036H259.845L260.821 272.591C261.017 273.885 261.183 275.179 261.322 276.473L267.12 266.036H269.427L261.163 280.721C260.366 282.153 259.658 283.102 259.039 283.565C258.421 284.029 257.708 284.261 256.903 284.261C256.39 284.261 255.89 284.176 255.401 284.005ZM277.472 277.389C276.707 278.048 275.97 278.532 275.262 278.841C274.554 279.142 273.797 279.293 272.992 279.293C271.795 279.293 270.831 278.943 270.099 278.243C269.366 277.535 269 276.632 269 275.533C269 274.809 269.163 274.17 269.488 273.617C269.822 273.055 270.261 272.608 270.807 272.274C271.352 271.932 272.019 271.688 272.809 271.542C273.305 271.444 274.245 271.367 275.628 271.31C277.02 271.253 278.017 271.106 278.619 270.87C278.79 270.268 278.875 269.767 278.875 269.369C278.875 268.856 278.688 268.453 278.314 268.16C277.801 267.753 277.053 267.55 276.068 267.55C275.14 267.55 274.379 267.757 273.785 268.172C273.199 268.579 272.772 269.161 272.503 269.918L270.27 269.723C270.725 268.437 271.445 267.452 272.43 266.769C273.423 266.085 274.672 265.743 276.178 265.743C277.781 265.743 279.05 266.126 279.986 266.891C280.702 267.46 281.061 268.201 281.061 269.112C281.061 269.804 280.959 270.606 280.755 271.517L280.035 274.74C279.807 275.765 279.693 276.599 279.693 277.242C279.693 277.649 279.783 278.235 279.962 279H277.728C277.606 278.577 277.521 278.04 277.472 277.389ZM278.29 272.433C277.98 272.555 277.647 272.648 277.289 272.713C276.939 272.778 276.349 272.848 275.519 272.921C274.233 273.035 273.325 273.181 272.796 273.36C272.267 273.531 271.869 273.808 271.6 274.19C271.332 274.573 271.197 274.996 271.197 275.46C271.197 276.078 271.409 276.587 271.832 276.986C272.263 277.385 272.874 277.584 273.663 277.584C274.396 277.584 275.099 277.393 275.775 277.01C276.45 276.62 276.983 276.078 277.374 275.387C277.765 274.695 278.07 273.71 278.29 272.433ZM282.672 279L286.419 261.104H288.617L286.297 272.201L292.743 266.036H295.66L290.13 270.87L293.475 279H291.058L288.47 272.347L285.785 274.667L284.881 279H282.672ZM303.888 277.389C303.123 278.048 302.386 278.532 301.678 278.841C300.97 279.142 300.213 279.293 299.408 279.293C298.211 279.293 297.247 278.943 296.515 278.243C295.782 277.535 295.416 276.632 295.416 275.533C295.416 274.809 295.579 274.17 295.904 273.617C296.238 273.055 296.677 272.608 297.223 272.274C297.768 271.932 298.435 271.688 299.225 271.542C299.721 271.444 300.661 271.367 302.044 271.31C303.436 271.253 304.433 271.106 305.035 270.87C305.206 270.268 305.292 269.767 305.292 269.369C305.292 268.856 305.104 268.453 304.73 268.16C304.217 267.753 303.469 267.55 302.484 267.55C301.556 267.55 300.795 267.757 300.201 268.172C299.615 268.579 299.188 269.161 298.919 269.918L296.686 269.723C297.141 268.437 297.861 267.452 298.846 266.769C299.839 266.085 301.088 265.743 302.594 265.743C304.197 265.743 305.466 266.126 306.402 266.891C307.118 267.46 307.477 268.201 307.477 269.112C307.477 269.804 307.375 270.606 307.171 271.517L306.451 274.74C306.223 275.765 306.109 276.599 306.109 277.242C306.109 277.649 306.199 278.235 306.378 279H304.144C304.022 278.577 303.937 278.04 303.888 277.389ZM304.706 272.433C304.396 272.555 304.063 272.648 303.705 272.713C303.355 272.778 302.765 272.848 301.935 272.921C300.649 273.035 299.741 273.181 299.212 273.36C298.683 273.531 298.285 273.808 298.016 274.19C297.748 274.573 297.613 274.996 297.613 275.46C297.613 276.078 297.825 276.587 298.248 276.986C298.679 277.385 299.29 277.584 300.079 277.584C300.812 277.584 301.515 277.393 302.191 277.01C302.866 276.62 303.399 276.078 303.79 275.387C304.181 274.695 304.486 273.71 304.706 272.433ZM309.063 279L311.773 266.036H313.775L313.299 268.294C314.17 267.407 314.984 266.76 315.741 266.354C316.498 265.947 317.271 265.743 318.06 265.743C319.11 265.743 319.932 266.028 320.526 266.598C321.128 267.167 321.429 267.928 321.429 268.88C321.429 269.361 321.323 270.117 321.112 271.151L319.464 279H317.254L318.976 270.785C319.146 269.987 319.232 269.397 319.232 269.015C319.232 268.583 319.081 268.233 318.78 267.965C318.487 267.696 318.06 267.562 317.499 267.562C316.367 267.562 315.358 267.969 314.471 268.783C313.592 269.597 312.945 270.992 312.53 272.97L311.273 279H309.063ZM329.938 279L333.673 261.104H335.882L334.552 267.501C335.252 266.858 335.886 266.406 336.456 266.146C337.026 265.877 337.62 265.743 338.238 265.743C339.451 265.743 340.46 266.195 341.266 267.098C342.079 268.001 342.486 269.316 342.486 271.041C342.486 272.188 342.324 273.238 341.998 274.19C341.673 275.143 341.27 275.944 340.79 276.595C340.309 277.238 339.813 277.755 339.3 278.146C338.788 278.528 338.263 278.813 337.726 279C337.188 279.195 336.672 279.293 336.175 279.293C335.321 279.293 334.568 279.069 333.917 278.622C333.266 278.166 332.757 277.474 332.391 276.546L331.878 279H329.938ZM333.209 273.678L333.197 274.093C333.197 275.2 333.461 276.042 333.99 276.62C334.519 277.197 335.178 277.486 335.968 277.486C336.741 277.486 337.449 277.218 338.092 276.681C338.743 276.135 339.276 275.289 339.691 274.142C340.106 272.994 340.313 271.936 340.313 270.968C340.313 269.877 340.049 269.031 339.52 268.429C338.999 267.826 338.352 267.525 337.579 267.525C336.782 267.525 336.049 267.835 335.382 268.453C334.715 269.063 334.157 270.007 333.709 271.285C333.376 272.237 333.209 273.035 333.209 273.678ZM353.375 274.593L355.523 274.813C355.214 275.879 354.502 276.892 353.387 277.853C352.28 278.813 350.958 279.293 349.42 279.293C348.46 279.293 347.577 279.073 346.771 278.634C345.973 278.186 345.363 277.539 344.94 276.693C344.525 275.847 344.317 274.882 344.317 273.8C344.317 272.384 344.643 271.013 345.294 269.686C345.953 268.351 346.804 267.363 347.845 266.72C348.887 266.069 350.014 265.743 351.227 265.743C352.773 265.743 354.006 266.223 354.925 267.184C355.853 268.144 356.317 269.454 356.317 271.114C356.317 271.749 356.26 272.4 356.146 273.067H346.6C346.568 273.32 346.551 273.548 346.551 273.751C346.551 274.964 346.828 275.891 347.381 276.534C347.943 277.169 348.626 277.486 349.432 277.486C350.189 277.486 350.934 277.238 351.666 276.742C352.398 276.245 352.968 275.529 353.375 274.593ZM346.954 271.383H354.229C354.238 271.155 354.242 270.992 354.242 270.895C354.242 269.788 353.965 268.941 353.412 268.355C352.858 267.761 352.146 267.464 351.275 267.464C350.331 267.464 349.469 267.79 348.688 268.441C347.914 269.092 347.337 270.073 346.954 271.383ZM357.77 279L360.479 266.036H362.433L361.883 268.685C362.551 267.684 363.202 266.944 363.836 266.463C364.479 265.983 365.134 265.743 365.802 265.743C366.241 265.743 366.782 265.902 367.425 266.219L366.522 268.27C366.139 267.993 365.72 267.855 365.265 267.855C364.492 267.855 363.698 268.286 362.884 269.149C362.07 270.012 361.432 271.562 360.968 273.8L359.869 279H357.77ZM366.302 274.569L368.512 274.435C368.512 275.069 368.609 275.611 368.805 276.058C369 276.506 369.358 276.872 369.879 277.157C370.408 277.442 371.022 277.584 371.722 277.584C372.699 277.584 373.431 277.389 373.919 276.998C374.408 276.607 374.652 276.148 374.652 275.619C374.652 275.236 374.505 274.874 374.212 274.532C373.911 274.19 373.175 273.771 372.003 273.275C370.839 272.77 370.095 272.416 369.769 272.213C369.224 271.879 368.813 271.489 368.536 271.041C368.259 270.585 368.121 270.064 368.121 269.479C368.121 268.453 368.528 267.574 369.342 266.842C370.156 266.109 371.295 265.743 372.76 265.743C374.387 265.743 375.624 266.122 376.471 266.878C377.325 267.627 377.769 268.616 377.801 269.845L375.641 269.991C375.608 269.21 375.331 268.591 374.811 268.136C374.29 267.68 373.553 267.452 372.601 267.452C371.836 267.452 371.242 267.627 370.819 267.977C370.396 268.327 370.184 268.705 370.184 269.112C370.184 269.519 370.367 269.877 370.733 270.187C370.978 270.398 371.608 270.724 372.625 271.163C374.318 271.896 375.384 272.473 375.824 272.896C376.524 273.572 376.874 274.394 376.874 275.362C376.874 276.005 376.674 276.636 376.275 277.254C375.885 277.873 375.283 278.369 374.469 278.744C373.663 279.11 372.711 279.293 371.612 279.293C370.115 279.293 368.841 278.923 367.792 278.182C366.742 277.442 366.245 276.237 366.302 274.569ZM387.335 277.389C386.57 278.048 385.833 278.532 385.125 278.841C384.417 279.142 383.661 279.293 382.855 279.293C381.659 279.293 380.694 278.943 379.962 278.243C379.229 277.535 378.863 276.632 378.863 275.533C378.863 274.809 379.026 274.17 379.352 273.617C379.685 273.055 380.125 272.608 380.67 272.274C381.215 271.932 381.882 271.688 382.672 271.542C383.168 271.444 384.108 271.367 385.492 271.31C386.883 271.253 387.88 271.106 388.482 270.87C388.653 270.268 388.739 269.767 388.739 269.369C388.739 268.856 388.552 268.453 388.177 268.16C387.665 267.753 386.916 267.55 385.931 267.55C385.003 267.55 384.243 267.757 383.648 268.172C383.062 268.579 382.635 269.161 382.367 269.918L380.133 269.723C380.589 268.437 381.309 267.452 382.293 266.769C383.286 266.085 384.535 265.743 386.041 265.743C387.644 265.743 388.914 266.126 389.85 266.891C390.566 267.46 390.924 268.201 390.924 269.112C390.924 269.804 390.822 270.606 390.619 271.517L389.898 274.74C389.671 275.765 389.557 276.599 389.557 277.242C389.557 277.649 389.646 278.235 389.825 279H387.591C387.469 278.577 387.384 278.04 387.335 277.389ZM388.153 272.433C387.844 272.555 387.51 272.648 387.152 272.713C386.802 272.778 386.212 272.848 385.382 272.921C384.096 273.035 383.189 273.181 382.66 273.36C382.131 273.531 381.732 273.808 381.463 274.19C381.195 274.573 381.061 274.996 381.061 275.46C381.061 276.078 381.272 276.587 381.695 276.986C382.127 277.385 382.737 277.584 383.526 277.584C384.259 277.584 384.963 277.393 385.638 277.01C386.314 276.62 386.847 276.078 387.237 275.387C387.628 274.695 387.933 273.71 388.153 272.433ZM392.499 279L395.208 266.036H397.418L396.966 268.172C397.788 267.253 398.521 266.618 399.164 266.268C399.815 265.918 400.519 265.743 401.275 265.743C402.081 265.743 402.752 265.959 403.29 266.39C403.835 266.813 404.193 267.407 404.364 268.172C405.023 267.359 405.715 266.752 406.439 266.354C407.171 265.947 407.94 265.743 408.746 265.743C409.828 265.743 410.638 266 411.175 266.512C411.721 267.025 411.993 267.745 411.993 268.673C411.993 269.072 411.9 269.731 411.712 270.65L409.967 279H407.757L409.54 270.431C409.694 269.731 409.771 269.23 409.771 268.929C409.771 268.506 409.637 268.172 409.369 267.928C409.1 267.684 408.722 267.562 408.233 267.562C407.574 267.562 406.903 267.761 406.219 268.16C405.536 268.559 405.003 269.084 404.62 269.735C404.246 270.378 403.916 271.371 403.631 272.713L402.313 279H400.104L401.935 270.248C402.065 269.653 402.13 269.23 402.13 268.978C402.13 268.555 401.996 268.213 401.727 267.953C401.467 267.692 401.125 267.562 400.702 267.562C400.075 267.562 399.416 267.761 398.724 268.16C398.041 268.559 397.483 269.116 397.052 269.833C396.62 270.541 396.266 271.554 395.99 272.872L394.708 279H392.499ZM422.076 277.389C421.311 278.048 420.575 278.532 419.867 278.841C419.159 279.142 418.402 279.293 417.596 279.293C416.4 279.293 415.436 278.943 414.703 278.243C413.971 277.535 413.604 276.632 413.604 275.533C413.604 274.809 413.767 274.17 414.093 273.617C414.426 273.055 414.866 272.608 415.411 272.274C415.956 271.932 416.624 271.688 417.413 271.542C417.91 271.444 418.849 271.367 420.233 271.31C421.625 271.253 422.621 271.106 423.224 270.87C423.395 270.268 423.48 269.767 423.48 269.369C423.48 268.856 423.293 268.453 422.918 268.16C422.406 267.753 421.657 267.55 420.672 267.55C419.745 267.55 418.984 267.757 418.39 268.172C417.804 268.579 417.376 269.161 417.108 269.918L414.874 269.723C415.33 268.437 416.05 267.452 417.035 266.769C418.028 266.085 419.277 265.743 420.782 265.743C422.385 265.743 423.655 266.126 424.591 266.891C425.307 267.46 425.665 268.201 425.665 269.112C425.665 269.804 425.563 270.606 425.36 271.517L424.64 274.74C424.412 275.765 424.298 276.599 424.298 277.242C424.298 277.649 424.387 278.235 424.566 279H422.333C422.21 278.577 422.125 278.04 422.076 277.389ZM422.894 272.433C422.585 272.555 422.251 272.648 421.893 272.713C421.543 272.778 420.953 272.848 420.123 272.921C418.837 273.035 417.93 273.181 417.401 273.36C416.872 273.531 416.473 273.808 416.205 274.19C415.936 274.573 415.802 274.996 415.802 275.46C415.802 276.078 416.013 276.587 416.437 276.986C416.868 277.385 417.478 277.584 418.268 277.584C419 277.584 419.704 277.393 420.379 277.01C421.055 276.62 421.588 276.078 421.979 275.387C422.369 274.695 422.674 273.71 422.894 272.433ZM429.217 274.483L430.572 264.767L431.341 261.104H434.015L433.185 265.072L430.597 274.483H429.217ZM427.826 279L428.351 276.498H430.841L430.316 279H427.826Z" fill="#3A3A3A"/>
<path d="M17.3333 4.33334V10.8333M34.6667 4.33334V10.8333M7.58333 19.695H44.4167M45.5 18.4167V36.8333C45.5 43.3333 42.25 47.6667 34.6667 47.6667H17.3333C9.75 47.6667 6.5 43.3333 6.5 36.8333V18.4167C6.5 11.9167 9.75 7.58334 17.3333 7.58334H34.6667C42.25 7.58334 45.5 11.9167 45.5 18.4167Z" stroke="black" stroke-width="1.5" stroke-miterlimit="10" stroke-linecap="round" stroke-linejoin="round"/>
<path d="M34.0058 29.6833H34.0253M34.0058 36.1833H34.0253M25.9892 29.6833H26.0108M25.9892 36.1833H26.0108M17.9703 29.6833H17.992M17.9703 36.1833H17.992" stroke="black" stroke-width="2" stroke-linecap="round" stroke-linejoin="round"/>
<path d="M47.6667 93C47.6667 104.96 37.96 114.667 26 114.667C14.04 114.667 4.33333 104.96 4.33333 93C4.33333 81.04 14.04 71.3333 26 71.3333C37.96 71.3333 47.6667 81.04 47.6667 93Z" stroke="black" stroke-width="1.5" stroke-linecap="round" stroke-linejoin="round"/>
<path d="M34.0383 99.89L27.3217 95.8817C26.1517 95.1883 25.1983 93.52 25.1983 92.155V83.2717" stroke="black" stroke-width="1.5" stroke-linecap="round" stroke-linejoin="round"/>
<path d="M19.5433 139.153L7.865 148.253C5.915 149.77 4.33333 152.998 4.33333 155.447V171.502C4.33333 176.528 8.42833 180.645 13.455 180.645H38.545C43.5717 180.645 47.6667 176.528 47.6667 171.523V155.75C47.6667 153.128 45.9117 149.77 43.7667 148.275L30.3767 138.893C27.3433 136.77 22.4683 136.878 19.5433 139.153Z" stroke="black" stroke-width="1.5" stroke-linecap="round" stroke-linejoin="round"/>
<path d="M26 152.5V172M16.25 162.25H35.75M22.75 172H29.25C32.825 172 35.75 169.075 35.75 165.5V159C35.75 155.425 32.825 152.5 29.25 152.5H22.75C19.175 152.5 16.25 155.425 16.25 159V165.5C16.25 169.075 19.175 172 22.75 172Z" stroke="black" stroke-width="1.5" stroke-linecap="round" stroke-linejoin="round"/>
</svg>
